M48
; DRILL file {KiCad 9.0.5} date 2025-10-15T03:38:47+0900
; FORMAT={-:-/ absolute / metric / decimal}
; #@! TF.CreationDate,2025-10-15T03:38:47+09:00
; #@! TF.GenerationSoftware,Kicad,Pcbnew,9.0.5
; #@! TF.FileFunction,Plated,1,2,PTH
FMAT,2
METRIC
; #@! TA.AperFunction,Plated,PTH,ViaDrill
T1C0.300
; #@! TA.AperFunction,Plated,PTH,ComponentDrill
T2C1.000
%
G90
G05
T1
X127.61Y-95.2
X131.77Y-96.13
X131.8Y-94.25
X134.88Y-99.58
X136.76Y-93.06
X136.849Y-101.682
X136.859Y-102.632
X136.89Y-106.08
X137.54Y-93.05
X137.94Y-105.12
X138.59Y-105.12
X139.075Y-87.79
X139.231Y-101.682
X139.231Y-102.622
X139.24Y-105.13
X139.241Y-103.582
X139.865Y-83.62
X139.87Y-89.77
X140.36Y-94.65
X140.865Y-83.62
X140.869Y-89.745
X141.175Y-88.49
X141.26Y-82.99
X141.38Y-89.18
X142.31Y-93.12
X142.405Y-86.81
X147.07Y-109.04
X147.19Y-100.6
X148.87Y-107.36
X150.31Y-90.867
X150.36Y-87.82
X151.41Y-107.34
X153.95Y-107.35
X155.67Y-90.977
X156.5Y-107.35
X161.04Y-90.977
X166.41Y-90.947
X171.77Y-90.917
T2
X130.33Y-87.77
X133.83Y-87.77
X165.76Y-110.02
X169.26Y-110.02
M30
