%TF.GenerationSoftware,KiCad,Pcbnew,9.0.5*%
%TF.CreationDate,2025-10-15T03:39:03+09:00*%
%TF.ProjectId,fpga_pre_test,66706761-5f70-4726-955f-746573742e6b,rev?*%
%TF.SameCoordinates,Original*%
%TF.FileFunction,Copper,L2,Bot*%
%TF.FilePolarity,Positive*%
%FSLAX46Y46*%
G04 Gerber Fmt 4.6, Leading zero omitted, Abs format (unit mm)*
G04 Created by KiCad (PCBNEW 9.0.5) date 2025-10-15 03:39:03*
%MOMM*%
%LPD*%
G01*
G04 APERTURE LIST*
G04 Aperture macros list*
%AMRoundRect*
0 Rectangle with rounded corners*
0 $1 Rounding radius*
0 $2 $3 $4 $5 $6 $7 $8 $9 X,Y pos of 4 corners*
0 Add a 4 corners polygon primitive as box body*
4,1,4,$2,$3,$4,$5,$6,$7,$8,$9,$2,$3,0*
0 Add four circle primitives for the rounded corners*
1,1,$1+$1,$2,$3*
1,1,$1+$1,$4,$5*
1,1,$1+$1,$6,$7*
1,1,$1+$1,$8,$9*
0 Add four rect primitives between the rounded corners*
20,1,$1+$1,$2,$3,$4,$5,0*
20,1,$1+$1,$4,$5,$6,$7,0*
20,1,$1+$1,$6,$7,$8,$9,0*
20,1,$1+$1,$8,$9,$2,$3,0*%
G04 Aperture macros list end*
%TA.AperFunction,Conductor*%
%ADD10C,0.200000*%
%TD*%
%TA.AperFunction,SMDPad,CuDef*%
%ADD11RoundRect,0.225000X-0.250000X0.225000X-0.250000X-0.225000X0.250000X-0.225000X0.250000X0.225000X0*%
%TD*%
%TA.AperFunction,SMDPad,CuDef*%
%ADD12RoundRect,0.250000X-0.650000X0.325000X-0.650000X-0.325000X0.650000X-0.325000X0.650000X0.325000X0*%
%TD*%
%TA.AperFunction,SMDPad,CuDef*%
%ADD13RoundRect,0.250000X-1.100000X0.325000X-1.100000X-0.325000X1.100000X-0.325000X1.100000X0.325000X0*%
%TD*%
%TA.AperFunction,SMDPad,CuDef*%
%ADD14RoundRect,0.250000X-0.475000X0.250000X-0.475000X-0.250000X0.475000X-0.250000X0.475000X0.250000X0*%
%TD*%
%TA.AperFunction,SMDPad,CuDef*%
%ADD15RoundRect,0.200000X0.275000X-0.200000X0.275000X0.200000X-0.275000X0.200000X-0.275000X-0.200000X0*%
%TD*%
%TA.AperFunction,SMDPad,CuDef*%
%ADD16RoundRect,0.250000X0.250000X0.475000X-0.250000X0.475000X-0.250000X-0.475000X0.250000X-0.475000X0*%
%TD*%
%TA.AperFunction,SMDPad,CuDef*%
%ADD17RoundRect,0.225000X0.225000X0.250000X-0.225000X0.250000X-0.225000X-0.250000X0.225000X-0.250000X0*%
%TD*%
%TA.AperFunction,SMDPad,CuDef*%
%ADD18RoundRect,0.200000X0.200000X0.275000X-0.200000X0.275000X-0.200000X-0.275000X0.200000X-0.275000X0*%
%TD*%
%TA.AperFunction,SMDPad,CuDef*%
%ADD19RoundRect,0.200000X-0.275000X0.200000X-0.275000X-0.200000X0.275000X-0.200000X0.275000X0.200000X0*%
%TD*%
%TA.AperFunction,SMDPad,CuDef*%
%ADD20RoundRect,0.140000X0.140000X0.170000X-0.140000X0.170000X-0.140000X-0.170000X0.140000X-0.170000X0*%
%TD*%
%TA.AperFunction,ComponentPad*%
%ADD21C,1.500000*%
%TD*%
%TA.AperFunction,SMDPad,CuDef*%
%ADD22RoundRect,0.250000X0.475000X-0.250000X0.475000X0.250000X-0.475000X0.250000X-0.475000X-0.250000X0*%
%TD*%
%TA.AperFunction,SMDPad,CuDef*%
%ADD23RoundRect,0.250000X0.325000X0.650000X-0.325000X0.650000X-0.325000X-0.650000X0.325000X-0.650000X0*%
%TD*%
%TA.AperFunction,ViaPad*%
%ADD24C,0.450000*%
%TD*%
%TA.AperFunction,ViaPad*%
%ADD25C,0.500000*%
%TD*%
%TA.AperFunction,Conductor*%
%ADD26C,0.250000*%
%TD*%
%TA.AperFunction,Conductor*%
%ADD27C,0.800000*%
%TD*%
%TA.AperFunction,Conductor*%
%ADD28C,0.500000*%
%TD*%
%TA.AperFunction,Conductor*%
%ADD29C,0.600000*%
%TD*%
%TA.AperFunction,Conductor*%
%ADD30C,1.000000*%
%TD*%
%TA.AperFunction,Conductor*%
%ADD31C,0.300000*%
%TD*%
%TA.AperFunction,Conductor*%
%ADD32C,0.700000*%
%TD*%
G04 APERTURE END LIST*
D10*
%TO.N,Net-(R1-Pad2)*%
X135660000Y-99960000D02*
X135640000Y-100910000D01*
X134150000Y-100930000D01*
X134140000Y-99920000D01*
X134490000Y-99550000D01*
X135270000Y-99550000D01*
X135660000Y-99960000D01*
%TA.AperFunction,Conductor*%
G36*
X135660000Y-99960000D02*
G01*
X135640000Y-100910000D01*
X134150000Y-100930000D01*
X134140000Y-99920000D01*
X134490000Y-99550000D01*
X135270000Y-99550000D01*
X135660000Y-99960000D01*
G37*
%TD.AperFunction*%
%TD*%
D11*
%TO.P,C7,1*%
%TO.N,Net-(C7-Pad1)*%
X150310000Y-92620000D03*
%TO.P,C7,2*%
%TO.N,GND*%
X150310000Y-94170000D03*
%TD*%
D12*
%TO.P,C10,1*%
%TO.N,Net-(C10-Pad1)*%
X166405000Y-91990000D03*
%TO.P,C10,2*%
%TO.N,GND*%
X166405000Y-94940000D03*
%TD*%
D13*
%TO.P,C9,2*%
%TO.N,GND*%
X161040000Y-94940000D03*
%TO.P,C9,1*%
%TO.N,Net-(C9-Pad1)*%
X161040000Y-91990000D03*
%TD*%
D14*
%TO.P,C8,2*%
%TO.N,GND*%
X155675000Y-94415000D03*
%TO.P,C8,1*%
%TO.N,Net-(C8-Pad1)*%
X155675000Y-92515000D03*
%TD*%
D12*
%TO.P,C11,2*%
%TO.N,GND*%
X171770000Y-94920000D03*
%TO.P,C11,1*%
%TO.N,Net-(C11-Pad1)*%
X171770000Y-91970000D03*
%TD*%
D15*
%TO.P,R14,2*%
%TO.N,Net-(R14-Pad2)*%
X148870000Y-108010000D03*
%TO.P,R14,1*%
%TO.N,/VOUT2*%
X148870000Y-109660000D03*
%TD*%
D16*
%TO.P,C2,1*%
%TO.N,/VDC*%
X130520000Y-94250000D03*
%TO.P,C2,2*%
%TO.N,GND*%
X128620000Y-94250000D03*
%TD*%
D17*
%TO.P,C3,1*%
%TO.N,/3V3LVR*%
X130520000Y-96130000D03*
%TO.P,C3,2*%
%TO.N,GND*%
X128970000Y-96130000D03*
%TD*%
D18*
%TO.P,R4,2*%
%TO.N,/SEQ_FLAG_NC*%
X140281493Y-102622499D03*
%TO.P,R4,1*%
%TO.N,/3V3LVR*%
X141931493Y-102622499D03*
%TD*%
D15*
%TO.P,R1,2*%
%TO.N,Net-(R1-Pad2)*%
X135610000Y-100885000D03*
%TO.P,R1,1*%
%TO.N,/3V3LVR*%
X135610000Y-102535000D03*
%TD*%
D19*
%TO.P,R2,2*%
%TO.N,GND*%
X134152689Y-102535000D03*
%TO.P,R2,1*%
%TO.N,Net-(R1-Pad2)*%
X134152689Y-100885000D03*
%TD*%
D18*
%TO.P,R3,2*%
%TO.N,/SEQ_FLAG1*%
X140281493Y-101162499D03*
%TO.P,R3,1*%
%TO.N,/3V3LVR*%
X141931493Y-101162499D03*
%TD*%
%TO.P,R5,2*%
%TO.N,/SEQ_FLAG2*%
X140281493Y-104082499D03*
%TO.P,R5,1*%
%TO.N,/3V3LVR*%
X141931493Y-104082499D03*
%TD*%
D20*
%TO.P,C6,1*%
%TO.N,Net-(IC4-SS{slash}TR)*%
X141290000Y-90740000D03*
%TO.P,C6,2*%
%TO.N,GND*%
X140330000Y-90740000D03*
%TD*%
D15*
%TO.P,R15,1*%
%TO.N,Net-(R14-Pad2)*%
X148870000Y-106700000D03*
%TO.P,R15,2*%
%TO.N,GND*%
X148870000Y-105050000D03*
%TD*%
%TO.P,R13,1*%
%TO.N,Net-(R12-Pad2)*%
X151410000Y-106690000D03*
%TO.P,R13,2*%
%TO.N,GND*%
X151410000Y-105040000D03*
%TD*%
%TO.P,R12,1*%
%TO.N,/VOUT2*%
X151410000Y-109650000D03*
%TO.P,R12,2*%
%TO.N,Net-(R12-Pad2)*%
X151410000Y-108000000D03*
%TD*%
%TO.P,R11,1*%
%TO.N,Net-(R10-Pad2)*%
X153950000Y-106690000D03*
%TO.P,R11,2*%
%TO.N,GND*%
X153950000Y-105040000D03*
%TD*%
%TO.P,R10,1*%
%TO.N,/VOUT2*%
X153950000Y-109650000D03*
%TO.P,R10,2*%
%TO.N,Net-(R10-Pad2)*%
X153950000Y-108000000D03*
%TD*%
%TO.P,R9,1*%
%TO.N,Net-(R8-Pad2)*%
X156495000Y-106690000D03*
%TO.P,R9,2*%
%TO.N,GND*%
X156495000Y-105040000D03*
%TD*%
%TO.P,R8,1*%
%TO.N,/VOUT2*%
X156490000Y-109650000D03*
%TO.P,R8,2*%
%TO.N,Net-(R8-Pad2)*%
X156490000Y-108000000D03*
%TD*%
%TO.P,R7,1*%
%TO.N,Net-(IC3-FB)*%
X139145000Y-86400000D03*
%TO.P,R7,2*%
%TO.N,GND*%
X139145000Y-84750000D03*
%TD*%
D21*
%TO.P,J2,1,1*%
%TO.N,/VOUT2*%
X169260000Y-110020000D03*
%TO.P,J2,2,2*%
%TO.N,GND*%
X165760000Y-110020000D03*
%TD*%
%TO.P,J1,1,1*%
%TO.N,GND*%
X130330000Y-87770000D03*
%TO.P,J1,2,2*%
%TO.N,/VDC*%
X133830000Y-87770000D03*
%TD*%
D22*
%TO.P,C5,1*%
%TO.N,/VOUT1*%
X144915000Y-86920000D03*
%TO.P,C5,2*%
%TO.N,GND*%
X144915000Y-85020000D03*
%TD*%
D20*
%TO.P,C4,1*%
%TO.N,Net-(IC3-SS{slash}TR)*%
X141275000Y-84560000D03*
%TO.P,C4,2*%
%TO.N,GND*%
X140315000Y-84560000D03*
%TD*%
D23*
%TO.P,C1,1*%
%TO.N,/VDC*%
X133455000Y-89920000D03*
%TO.P,C1,2*%
%TO.N,GND*%
X130505000Y-89920000D03*
%TD*%
D18*
%TO.P,R6,1*%
%TO.N,/VOUT1*%
X140725000Y-87790000D03*
%TO.P,R6,2*%
%TO.N,Net-(IC3-FB)*%
X139075000Y-87790000D03*
%TD*%
D24*
%TO.N,Net-(IC4-FB)*%
X140360000Y-94650000D03*
X147190000Y-100600000D03*
%TO.N,/SEQ_FLAG2*%
X137540000Y-93050000D03*
X141380000Y-89180000D03*
%TO.N,/SEQ_FLAG1*%
X136760000Y-93060000D03*
X141260000Y-82990000D03*
%TO.N,GND*%
X150360000Y-87820000D03*
X142310000Y-93120000D03*
%TO.N,/3V3LVR*%
X131770000Y-96130000D03*
%TO.N,/VDC*%
X131800000Y-94250000D03*
%TO.N,/SEQ_FLAG1*%
X137939997Y-105120000D03*
%TO.N,/SEQ_FLAG_NC*%
X138590000Y-105120000D03*
%TO.N,/SEQ_FLAG2*%
X139240000Y-105130000D03*
%TO.N,Net-(C11-Pad1)*%
X171770000Y-90917500D03*
%TO.N,Net-(C10-Pad1)*%
X166410000Y-90947500D03*
%TO.N,Net-(C9-Pad1)*%
X161040000Y-90977500D03*
%TO.N,Net-(C8-Pad1)*%
X155670000Y-90977500D03*
%TO.N,Net-(C7-Pad1)*%
X150310000Y-90867500D03*
%TO.N,Net-(R8-Pad2)*%
X156500000Y-107350000D03*
%TO.N,Net-(R10-Pad2)*%
X153950000Y-107350000D03*
%TO.N,Net-(R12-Pad2)*%
X151410000Y-107340000D03*
%TO.N,Net-(R14-Pad2)*%
X148870000Y-107360000D03*
D25*
%TO.N,/3V3LVR*%
X136848735Y-101682499D03*
%TO.N,/SEQ_FLAG_NC*%
X139231493Y-102622499D03*
%TO.N,/SEQ_FLAG2*%
X139241493Y-103582499D03*
%TO.N,GND*%
X136858735Y-102632499D03*
X136890000Y-106080000D03*
%TO.N,Net-(R1-Pad2)*%
X134880000Y-99580000D03*
%TO.N,GND*%
X127610000Y-95200000D03*
%TO.N,/SEQ_FLAG1*%
X139231493Y-101682499D03*
D24*
%TO.N,GND*%
X139870000Y-89770000D03*
%TO.N,Net-(IC4-SS{slash}TR)*%
X140868888Y-89745000D03*
%TO.N,/VOUT1*%
X141175000Y-88490000D03*
%TO.N,Net-(IC3-FB)*%
X139075000Y-87790000D03*
%TO.N,GND*%
X142405000Y-86810000D03*
%TO.N,Net-(IC3-SS{slash}TR)*%
X140865000Y-83620000D03*
%TO.N,GND*%
X139865000Y-83620000D03*
%TO.N,/VOUT2*%
X147070000Y-109040000D03*
%TD*%
D26*
%TO.N,Net-(IC4-FB)*%
X140360000Y-96300000D02*
X144660000Y-100600000D01*
X144660000Y-100600000D02*
X147190000Y-100600000D01*
X140360000Y-94650000D02*
X140360000Y-96300000D01*
D27*
%TO.N,GND*%
X165760000Y-95585000D02*
X165760000Y-110020000D01*
X166405000Y-94940000D02*
X165760000Y-95585000D01*
D26*
%TO.N,/SEQ_FLAG2*%
X141369000Y-89169000D02*
X141380000Y-89180000D01*
X137540000Y-93050000D02*
X137540000Y-90090000D01*
X137540000Y-90090000D02*
X138461000Y-89169000D01*
X138461000Y-89169000D02*
X141369000Y-89169000D01*
%TO.N,/SEQ_FLAG1*%
X137650000Y-82990000D02*
X141260000Y-82990000D01*
X136760000Y-83880000D02*
X137650000Y-82990000D01*
X136760000Y-93060000D02*
X136760000Y-83880000D01*
D28*
%TO.N,GND*%
X143360000Y-94170000D02*
X150310000Y-94170000D01*
X142310000Y-93120000D02*
X143360000Y-94170000D01*
D27*
X150555000Y-94415000D02*
X150310000Y-94170000D01*
X155675000Y-94415000D02*
X150555000Y-94415000D01*
X156200000Y-94940000D02*
X155675000Y-94415000D01*
X161040000Y-94940000D02*
X156200000Y-94940000D01*
X166405000Y-94940000D02*
X161040000Y-94940000D01*
X171770000Y-94920000D02*
X166425000Y-94920000D01*
X166425000Y-94920000D02*
X166405000Y-94940000D01*
D29*
X146790000Y-107130000D02*
X137940000Y-107130000D01*
X137940000Y-107130000D02*
X136890000Y-106080000D01*
X148870000Y-105050000D02*
X146790000Y-107130000D01*
X135000000Y-106080000D02*
X136890000Y-106080000D01*
X134152689Y-105232689D02*
X135000000Y-106080000D01*
X134152689Y-102535000D02*
X134152689Y-105232689D01*
D28*
X146920000Y-85020000D02*
X144915000Y-85020000D01*
X147330000Y-87610000D02*
X147330000Y-85430000D01*
X148000000Y-88280000D02*
X147330000Y-87610000D01*
X149900000Y-88280000D02*
X148000000Y-88280000D01*
X147330000Y-85430000D02*
X146920000Y-85020000D01*
X150360000Y-87820000D02*
X149900000Y-88280000D01*
X140840000Y-93120000D02*
X140330000Y-92610000D01*
X142310000Y-93120000D02*
X140840000Y-93120000D01*
X140330000Y-92610000D02*
X140330000Y-90740000D01*
D30*
X163620000Y-110020000D02*
X158640000Y-105040000D01*
X158640000Y-105040000D02*
X156495000Y-105040000D01*
X165760000Y-110020000D02*
X163620000Y-110020000D01*
D29*
X129655000Y-98435000D02*
X128970000Y-97750000D01*
X128970000Y-97750000D02*
X128970000Y-96130000D01*
X132050000Y-99250000D02*
X131235000Y-98435000D01*
X131235000Y-98435000D02*
X129655000Y-98435000D01*
X132945000Y-102535000D02*
X132050000Y-101640000D01*
X132050000Y-101640000D02*
X132050000Y-99250000D01*
X134152689Y-102535000D02*
X132945000Y-102535000D01*
D27*
%TO.N,/3V3LVR*%
X130520000Y-96130000D02*
X131770000Y-96130000D01*
D30*
%TO.N,/VDC*%
X130520000Y-94250000D02*
X131800000Y-94250000D01*
D31*
%TO.N,/SEQ_FLAG1*%
X137950000Y-102963992D02*
X139231493Y-101682499D01*
X137939997Y-105167398D02*
X137942599Y-105170000D01*
X137950000Y-105170000D02*
X137950000Y-102963992D01*
X137939997Y-105120000D02*
X137939997Y-105167398D01*
X137942599Y-105170000D02*
X137950000Y-105170000D01*
%TO.N,/SEQ_FLAG2*%
X139240000Y-105130000D02*
X139241493Y-105128507D01*
X139241493Y-105128507D02*
X139241493Y-103582499D01*
%TO.N,/SEQ_FLAG_NC*%
X138590000Y-103263992D02*
X139231493Y-102622499D01*
X138590000Y-105120000D02*
X138590000Y-103263992D01*
D29*
%TO.N,Net-(C11-Pad1)*%
X171770000Y-90917500D02*
X171770000Y-91970000D01*
%TO.N,Net-(C10-Pad1)*%
X166410000Y-90947500D02*
X166410000Y-91985000D01*
X166410000Y-91985000D02*
X166405000Y-91990000D01*
%TO.N,Net-(C9-Pad1)*%
X161040000Y-90977500D02*
X161040000Y-91990000D01*
%TO.N,Net-(C8-Pad1)*%
X155670000Y-90977500D02*
X155670000Y-92510000D01*
X155670000Y-92510000D02*
X155675000Y-92515000D01*
%TO.N,Net-(C7-Pad1)*%
X150310000Y-90867500D02*
X150310000Y-92620000D01*
%TO.N,/VOUT2*%
X156480000Y-109660000D02*
X156490000Y-109650000D01*
X148870000Y-109660000D02*
X156480000Y-109660000D01*
%TO.N,GND*%
X156485000Y-105050000D02*
X156495000Y-105040000D01*
X148870000Y-105050000D02*
X156485000Y-105050000D01*
%TO.N,Net-(R12-Pad2)*%
X151410000Y-106690000D02*
X151410000Y-108000000D01*
%TO.N,Net-(R10-Pad2)*%
X153950000Y-106690000D02*
X153950000Y-108000000D01*
%TO.N,Net-(R8-Pad2)*%
X156495000Y-107995000D02*
X156490000Y-108000000D01*
X156495000Y-106690000D02*
X156495000Y-107995000D01*
%TO.N,Net-(R14-Pad2)*%
X148870000Y-106700000D02*
X148870000Y-108010000D01*
D28*
%TO.N,/3V3LVR*%
X136340114Y-101682499D02*
X136848735Y-101682499D01*
X135610000Y-102412613D02*
X136340114Y-101682499D01*
X135610000Y-102535000D02*
X135610000Y-102412613D01*
D27*
%TO.N,GND*%
X127610000Y-95650000D02*
X127610000Y-95200000D01*
X128560000Y-94250000D02*
X128050000Y-94250000D01*
X127610000Y-94690000D02*
X127610000Y-95200000D01*
X128050000Y-94250000D02*
X127610000Y-94690000D01*
X128970000Y-96130000D02*
X128090000Y-96130000D01*
X128090000Y-96130000D02*
X127610000Y-95650000D01*
D28*
%TO.N,Net-(R1-Pad2)*%
X135210000Y-99580000D02*
X134880000Y-99580000D01*
X135610000Y-99980000D02*
X135210000Y-99580000D01*
X135610000Y-100885000D02*
X135610000Y-99980000D01*
X134550000Y-99580000D02*
X134880000Y-99580000D01*
X134152689Y-100885000D02*
X135610000Y-100885000D01*
X134152689Y-100885000D02*
X134152689Y-99977311D01*
X134152689Y-99977311D02*
X134550000Y-99580000D01*
%TO.N,/SEQ_FLAG2*%
X139241493Y-103832499D02*
X139241493Y-103582499D01*
X139491493Y-104082499D02*
X139241493Y-103832499D01*
X140281493Y-104082499D02*
X139491493Y-104082499D01*
%TO.N,/3V3LVR*%
X141931493Y-101162499D02*
X141931493Y-104082499D01*
D27*
%TO.N,GND*%
X128620000Y-94250000D02*
X128560000Y-94250000D01*
D28*
%TO.N,/SEQ_FLAG1*%
X139231493Y-101472499D02*
X139541493Y-101162499D01*
X139541493Y-101162499D02*
X140281493Y-101162499D01*
%TO.N,/SEQ_FLAG_NC*%
X140281493Y-102622499D02*
X139231493Y-102622499D01*
%TO.N,/SEQ_FLAG1*%
X139231493Y-101682499D02*
X139231493Y-101472499D01*
%TO.N,Net-(IC4-SS{slash}TR)*%
X141290000Y-90740000D02*
X141290000Y-90166112D01*
X141290000Y-90166112D02*
X140868888Y-89745000D01*
%TO.N,GND*%
X140330000Y-90230000D02*
X139870000Y-89770000D01*
X140330000Y-90740000D02*
X140330000Y-90230000D01*
X141135000Y-86810000D02*
X142405000Y-86810000D01*
X140315000Y-85990000D02*
X141135000Y-86810000D01*
X140315000Y-84560000D02*
X140315000Y-85990000D01*
%TO.N,Net-(IC3-SS{slash}TR)*%
X141275000Y-84030000D02*
X140865000Y-83620000D01*
X141275000Y-84560000D02*
X141275000Y-84030000D01*
%TO.N,GND*%
X140315000Y-84070000D02*
X139865000Y-83620000D01*
X140315000Y-84560000D02*
X140315000Y-84070000D01*
X142405000Y-85900000D02*
X142405000Y-86810000D01*
X143285000Y-85020000D02*
X142405000Y-85900000D01*
X144915000Y-85020000D02*
X143285000Y-85020000D01*
X139335000Y-84560000D02*
X139145000Y-84750000D01*
X140315000Y-84560000D02*
X139335000Y-84560000D01*
D32*
%TO.N,Net-(IC3-FB)*%
X139075000Y-86470000D02*
X139145000Y-86400000D01*
X139075000Y-87790000D02*
X139075000Y-86470000D01*
D27*
%TO.N,GND*%
X130505000Y-87945000D02*
X130330000Y-87770000D01*
X130505000Y-89920000D02*
X130505000Y-87945000D01*
%TO.N,/VDC*%
X133455000Y-88145000D02*
X133830000Y-87770000D01*
X133455000Y-89920000D02*
X133455000Y-88145000D01*
D26*
%TO.N,/VOUT1*%
X140725000Y-88040000D02*
X141175000Y-88490000D01*
X140725000Y-87790000D02*
X140725000Y-88040000D01*
D29*
%TO.N,/VOUT2*%
X148870000Y-109660000D02*
X147690000Y-109660000D01*
X147690000Y-109660000D02*
X147070000Y-109040000D01*
%TD*%
%TA.AperFunction,Conductor*%
%TO.N,GND*%
G36*
X137178610Y-82364161D02*
G01*
X137224365Y-82416965D01*
X137234309Y-82486123D01*
X137205284Y-82549679D01*
X137199252Y-82556157D01*
X136274144Y-83481264D01*
X136274138Y-83481272D01*
X136239914Y-83532489D01*
X136239915Y-83532490D01*
X136205689Y-83583711D01*
X136205686Y-83583716D01*
X136192521Y-83615499D01*
X136192522Y-83615500D01*
X136171693Y-83665786D01*
X136171691Y-83665790D01*
X136168082Y-83674506D01*
X136158537Y-83697549D01*
X136136221Y-83809744D01*
X136135687Y-83812426D01*
X136135682Y-83812448D01*
X136134500Y-83818392D01*
X136134500Y-92652679D01*
X136119858Y-92711133D01*
X136117070Y-92716348D01*
X136062381Y-92848379D01*
X136062379Y-92848385D01*
X136034500Y-92988542D01*
X136034500Y-92988545D01*
X136034500Y-93131455D01*
X136034500Y-93131457D01*
X136034499Y-93131457D01*
X136062379Y-93271614D01*
X136062381Y-93271620D01*
X136117069Y-93403650D01*
X136117074Y-93403659D01*
X136196467Y-93522478D01*
X136196470Y-93522482D01*
X136297517Y-93623529D01*
X136297521Y-93623532D01*
X136416340Y-93702925D01*
X136416346Y-93702928D01*
X136416347Y-93702929D01*
X136548380Y-93757619D01*
X136548384Y-93757619D01*
X136548385Y-93757620D01*
X136688542Y-93785500D01*
X136688545Y-93785500D01*
X136831457Y-93785500D01*
X136925751Y-93766742D01*
X136971620Y-93757619D01*
X137103653Y-93702929D01*
X137103652Y-93702929D01*
X137109281Y-93700598D01*
X137109813Y-93701883D01*
X137171319Y-93689065D01*
X137208843Y-93698105D01*
X137328380Y-93747619D01*
X137328384Y-93747619D01*
X137328385Y-93747620D01*
X137468542Y-93775500D01*
X137468545Y-93775500D01*
X137611457Y-93775500D01*
X137705751Y-93756742D01*
X137751620Y-93747619D01*
X137883653Y-93692929D01*
X138002479Y-93613532D01*
X138103532Y-93512479D01*
X138182929Y-93393653D01*
X138237619Y-93261620D01*
X138253399Y-93182289D01*
X138265500Y-93121457D01*
X138265500Y-92978542D01*
X138237620Y-92838385D01*
X138237619Y-92838384D01*
X138237619Y-92838380D01*
X138182929Y-92706347D01*
X138182926Y-92706343D01*
X138180142Y-92701133D01*
X138165500Y-92642679D01*
X138165500Y-92346647D01*
X149334500Y-92346647D01*
X149334500Y-92893337D01*
X149334501Y-92893355D01*
X149344650Y-92992707D01*
X149344651Y-92992710D01*
X149397996Y-93153694D01*
X149398001Y-93153705D01*
X149487029Y-93298040D01*
X149487032Y-93298044D01*
X149496660Y-93307672D01*
X149530145Y-93368995D01*
X149525161Y-93438687D01*
X149496663Y-93483031D01*
X149487428Y-93492265D01*
X149487424Y-93492271D01*
X149398457Y-93636507D01*
X149398452Y-93636518D01*
X149345144Y-93797393D01*
X149335000Y-93896677D01*
X149335000Y-93920000D01*
X151284999Y-93920000D01*
X151284999Y-93896692D01*
X151284998Y-93896677D01*
X151274855Y-93797392D01*
X151221547Y-93636518D01*
X151221542Y-93636507D01*
X151132575Y-93492271D01*
X151132572Y-93492267D01*
X151123339Y-93483034D01*
X151089854Y-93421711D01*
X151094838Y-93352019D01*
X151123343Y-93307668D01*
X151132968Y-93298044D01*
X151222003Y-93153697D01*
X151275349Y-92992708D01*
X151285500Y-92893345D01*
X151285499Y-92346656D01*
X151285331Y-92345016D01*
X151275349Y-92247292D01*
X151264643Y-92214983D01*
X154449500Y-92214983D01*
X154449500Y-92815001D01*
X154449501Y-92815019D01*
X154460000Y-92917796D01*
X154460001Y-92917799D01*
X154515185Y-93084331D01*
X154515187Y-93084336D01*
X154550069Y-93140888D01*
X154607288Y-93233656D01*
X154731344Y-93357712D01*
X154734628Y-93359737D01*
X154734653Y-93359753D01*
X154736445Y-93361746D01*
X154737011Y-93362193D01*
X154736934Y-93362289D01*
X154781379Y-93411699D01*
X154792603Y-93480661D01*
X154764761Y-93544744D01*
X154734665Y-93570826D01*
X154731660Y-93572679D01*
X154731655Y-93572683D01*
X154607684Y-93696654D01*
X154515643Y-93845875D01*
X154515641Y-93845880D01*
X154460494Y-94012302D01*
X154460493Y-94012309D01*
X154450000Y-94115013D01*
X154450000Y-94165000D01*
X156899999Y-94165000D01*
X156899999Y-94115028D01*
X156899998Y-94115013D01*
X156889505Y-94012302D01*
X156834358Y-93845880D01*
X156834356Y-93845875D01*
X156742315Y-93696654D01*
X156618344Y-93572683D01*
X156618341Y-93572681D01*
X156615339Y-93570829D01*
X156613713Y-93569021D01*
X156612677Y-93568202D01*
X156612817Y-93568024D01*
X156568617Y-93518880D01*
X156557397Y-93449917D01*
X156585243Y-93385836D01*
X156615344Y-93359754D01*
X156618656Y-93357712D01*
X156742712Y-93233656D01*
X156834814Y-93084334D01*
X156889999Y-92917797D01*
X156900500Y-92815009D01*
X156900499Y-92214992D01*
X156889999Y-92112203D01*
X156834814Y-91945666D01*
X156742712Y-91796344D01*
X156618656Y-91672288D01*
X156525749Y-91614983D01*
X159189500Y-91614983D01*
X159189500Y-92365001D01*
X159189501Y-92365019D01*
X159200000Y-92467796D01*
X159200001Y-92467799D01*
X159248558Y-92614331D01*
X159255186Y-92634334D01*
X159347288Y-92783656D01*
X159471344Y-92907712D01*
X159620666Y-92999814D01*
X159787203Y-93054999D01*
X159889991Y-93065500D01*
X162190008Y-93065499D01*
X162292797Y-93054999D01*
X162459334Y-92999814D01*
X162608656Y-92907712D01*
X162732712Y-92783656D01*
X162824814Y-92634334D01*
X162879999Y-92467797D01*
X162890500Y-92365009D01*
X162890499Y-91614992D01*
X162890498Y-91614983D01*
X165004500Y-91614983D01*
X165004500Y-92365001D01*
X165004501Y-92365019D01*
X165015000Y-92467796D01*
X165015001Y-92467799D01*
X165063558Y-92614331D01*
X165070186Y-92634334D01*
X165162288Y-92783656D01*
X165286344Y-92907712D01*
X165435666Y-92999814D01*
X165602203Y-93054999D01*
X165704991Y-93065500D01*
X167105008Y-93065499D01*
X167207797Y-93054999D01*
X167374334Y-92999814D01*
X167523656Y-92907712D01*
X167647712Y-92783656D01*
X167739814Y-92634334D01*
X167794999Y-92467797D01*
X167805500Y-92365009D01*
X167805499Y-91614992D01*
X167804982Y-91609935D01*
X167804421Y-91604434D01*
X167803455Y-91594983D01*
X170369500Y-91594983D01*
X170369500Y-92345001D01*
X170369501Y-92345019D01*
X170380000Y-92447796D01*
X170380001Y-92447799D01*
X170435185Y-92614331D01*
X170435186Y-92614334D01*
X170527288Y-92763656D01*
X170651344Y-92887712D01*
X170800666Y-92979814D01*
X170967203Y-93034999D01*
X171069991Y-93045500D01*
X172470008Y-93045499D01*
X172572797Y-93034999D01*
X172739334Y-92979814D01*
X172888656Y-92887712D01*
X173012712Y-92763656D01*
X173104814Y-92614334D01*
X173159999Y-92447797D01*
X173170500Y-92345009D01*
X173170499Y-91594992D01*
X173165341Y-91544503D01*
X173159999Y-91492203D01*
X173159998Y-91492200D01*
X173135978Y-91419714D01*
X173104814Y-91325666D01*
X173012712Y-91176344D01*
X172888656Y-91052288D01*
X172795888Y-90995069D01*
X172739336Y-90960187D01*
X172739331Y-90960185D01*
X172716568Y-90952642D01*
X172652993Y-90931575D01*
X172595549Y-90891803D01*
X172570381Y-90838061D01*
X172565733Y-90814692D01*
X172539737Y-90684003D01*
X172539735Y-90683998D01*
X172479397Y-90538327D01*
X172479390Y-90538314D01*
X172391789Y-90407211D01*
X172391786Y-90407207D01*
X172280292Y-90295713D01*
X172280288Y-90295710D01*
X172149185Y-90208109D01*
X172149172Y-90208102D01*
X172003501Y-90147764D01*
X172003489Y-90147761D01*
X171848845Y-90117000D01*
X171848842Y-90117000D01*
X171691158Y-90117000D01*
X171691155Y-90117000D01*
X171536510Y-90147761D01*
X171536498Y-90147764D01*
X171390827Y-90208102D01*
X171390814Y-90208109D01*
X171259711Y-90295710D01*
X171259707Y-90295713D01*
X171148213Y-90407207D01*
X171148210Y-90407211D01*
X171060609Y-90538314D01*
X171060602Y-90538327D01*
X171000264Y-90683998D01*
X171000261Y-90684008D01*
X170969618Y-90838062D01*
X170937233Y-90899972D01*
X170887006Y-90931575D01*
X170823432Y-90952642D01*
X170800666Y-90960186D01*
X170800663Y-90960187D01*
X170651342Y-91052289D01*
X170527289Y-91176342D01*
X170435187Y-91325663D01*
X170435185Y-91325668D01*
X170428558Y-91345668D01*
X170380001Y-91492203D01*
X170380001Y-91492204D01*
X170380000Y-91492204D01*
X170369500Y-91594983D01*
X167803455Y-91594983D01*
X167801005Y-91571008D01*
X167794999Y-91512203D01*
X167739814Y-91345666D01*
X167647712Y-91196344D01*
X167523656Y-91072288D01*
X167374334Y-90980186D01*
X167374332Y-90980185D01*
X167374330Y-90980184D01*
X167374329Y-90980183D01*
X167291217Y-90952642D01*
X167233772Y-90912869D01*
X167208605Y-90859128D01*
X167184908Y-90740000D01*
X167179737Y-90714003D01*
X167146598Y-90633998D01*
X167119397Y-90568327D01*
X167119390Y-90568314D01*
X167031789Y-90437211D01*
X167031786Y-90437207D01*
X166920292Y-90325713D01*
X166920288Y-90325710D01*
X166789185Y-90238109D01*
X166789172Y-90238102D01*
X166643501Y-90177764D01*
X166643489Y-90177761D01*
X166488845Y-90147000D01*
X166488842Y-90147000D01*
X166331158Y-90147000D01*
X166331155Y-90147000D01*
X166176510Y-90177761D01*
X166176498Y-90177764D01*
X166030827Y-90238102D01*
X166030814Y-90238109D01*
X165899711Y-90325710D01*
X165899707Y-90325713D01*
X165788213Y-90437207D01*
X165788210Y-90437211D01*
X165700609Y-90568314D01*
X165700602Y-90568327D01*
X165640264Y-90713998D01*
X165640261Y-90714008D01*
X165612100Y-90855582D01*
X165579715Y-90917493D01*
X165529488Y-90949096D01*
X165435666Y-90980186D01*
X165435663Y-90980187D01*
X165286342Y-91072289D01*
X165162289Y-91196342D01*
X165070187Y-91345663D01*
X165070186Y-91345666D01*
X165015001Y-91512203D01*
X165015001Y-91512204D01*
X165015000Y-91512204D01*
X165004500Y-91614983D01*
X162890498Y-91614983D01*
X162890497Y-91614977D01*
X162879999Y-91512203D01*
X162879998Y-91512200D01*
X162849485Y-91420118D01*
X162824814Y-91345666D01*
X162732712Y-91196344D01*
X162608656Y-91072288D01*
X162459334Y-90980186D01*
X162292797Y-90925001D01*
X162292795Y-90925000D01*
X162190016Y-90914500D01*
X162190009Y-90914500D01*
X161945415Y-90914500D01*
X161878376Y-90894815D01*
X161832621Y-90842011D01*
X161823798Y-90814691D01*
X161809738Y-90744010D01*
X161809738Y-90744008D01*
X161809737Y-90744003D01*
X161800953Y-90722796D01*
X161749397Y-90598327D01*
X161749390Y-90598314D01*
X161661789Y-90467211D01*
X161661786Y-90467207D01*
X161550292Y-90355713D01*
X161550288Y-90355710D01*
X161419185Y-90268109D01*
X161419172Y-90268102D01*
X161273501Y-90207764D01*
X161273489Y-90207761D01*
X161118845Y-90177000D01*
X161118842Y-90177000D01*
X160961158Y-90177000D01*
X160961155Y-90177000D01*
X160806510Y-90207761D01*
X160806498Y-90207764D01*
X160660827Y-90268102D01*
X160660814Y-90268109D01*
X160529711Y-90355710D01*
X160529707Y-90355713D01*
X160418213Y-90467207D01*
X160418210Y-90467211D01*
X160330609Y-90598314D01*
X160330602Y-90598327D01*
X160270264Y-90743998D01*
X160270261Y-90744008D01*
X160256201Y-90814692D01*
X160223815Y-90876603D01*
X160163099Y-90911177D01*
X160134585Y-90914500D01*
X159889999Y-90914500D01*
X159889980Y-90914501D01*
X159787203Y-90925000D01*
X159787200Y-90925001D01*
X159620668Y-90980185D01*
X159620663Y-90980187D01*
X159471342Y-91072289D01*
X159347289Y-91196342D01*
X159255187Y-91345663D01*
X159255186Y-91345666D01*
X159200001Y-91512203D01*
X159200001Y-91512204D01*
X159200000Y-91512204D01*
X159189500Y-91614983D01*
X156525749Y-91614983D01*
X156525639Y-91614915D01*
X156522041Y-91612324D01*
X156503197Y-91588100D01*
X156482678Y-91565287D01*
X156481533Y-91560250D01*
X156479141Y-91557175D01*
X156478026Y-91544819D01*
X156470500Y-91511697D01*
X156470500Y-90898655D01*
X156470499Y-90898653D01*
X156462637Y-90859128D01*
X156439737Y-90744003D01*
X156430953Y-90722796D01*
X156379397Y-90598327D01*
X156379390Y-90598314D01*
X156291789Y-90467211D01*
X156291786Y-90467207D01*
X156180292Y-90355713D01*
X156180288Y-90355710D01*
X156049185Y-90268109D01*
X156049172Y-90268102D01*
X155903501Y-90207764D01*
X155903489Y-90207761D01*
X155748845Y-90177000D01*
X155748842Y-90177000D01*
X155591158Y-90177000D01*
X155591155Y-90177000D01*
X155436510Y-90207761D01*
X155436498Y-90207764D01*
X155290827Y-90268102D01*
X155290814Y-90268109D01*
X155159711Y-90355710D01*
X155159707Y-90355713D01*
X155048213Y-90467207D01*
X155048210Y-90467211D01*
X154960609Y-90598314D01*
X154960602Y-90598327D01*
X154900264Y-90743998D01*
X154900261Y-90744010D01*
X154869500Y-90898653D01*
X154869500Y-91517865D01*
X154849815Y-91584904D01*
X154810598Y-91623403D01*
X154731344Y-91672287D01*
X154607289Y-91796342D01*
X154515187Y-91945663D01*
X154515186Y-91945666D01*
X154460001Y-92112203D01*
X154460001Y-92112204D01*
X154460000Y-92112204D01*
X154449500Y-92214983D01*
X151264643Y-92214983D01*
X151222003Y-92086303D01*
X151221999Y-92086297D01*
X151221998Y-92086294D01*
X151129177Y-91935809D01*
X151131896Y-91934131D01*
X151111091Y-91882534D01*
X151110500Y-91870440D01*
X151110500Y-90788655D01*
X151110499Y-90788653D01*
X151101619Y-90744010D01*
X151079737Y-90634003D01*
X151073944Y-90620018D01*
X151019397Y-90488327D01*
X151019390Y-90488314D01*
X150931789Y-90357211D01*
X150931786Y-90357207D01*
X150820292Y-90245713D01*
X150820288Y-90245710D01*
X150689185Y-90158109D01*
X150689172Y-90158102D01*
X150543501Y-90097764D01*
X150543489Y-90097761D01*
X150388845Y-90067000D01*
X150388842Y-90067000D01*
X150231158Y-90067000D01*
X150231155Y-90067000D01*
X150076510Y-90097761D01*
X150076498Y-90097764D01*
X149930827Y-90158102D01*
X149930814Y-90158109D01*
X149799711Y-90245710D01*
X149799707Y-90245713D01*
X149688213Y-90357207D01*
X149688210Y-90357211D01*
X149600609Y-90488314D01*
X149600602Y-90488327D01*
X149540264Y-90633998D01*
X149540261Y-90634010D01*
X149509500Y-90788653D01*
X149509500Y-91870440D01*
X149490384Y-91935538D01*
X149490823Y-91935809D01*
X149489835Y-91937410D01*
X149489815Y-91937479D01*
X149489652Y-91937706D01*
X149398001Y-92086294D01*
X149397996Y-92086305D01*
X149344651Y-92247290D01*
X149334500Y-92346647D01*
X138165500Y-92346647D01*
X138165500Y-90990000D01*
X139551210Y-90990000D01*
X139552854Y-91010910D01*
X139597968Y-91166195D01*
X139680278Y-91305374D01*
X139680285Y-91305383D01*
X139794616Y-91419714D01*
X139794625Y-91419721D01*
X139933804Y-91502031D01*
X140080000Y-91544504D01*
X140080000Y-90990000D01*
X139551210Y-90990000D01*
X138165500Y-90990000D01*
X138165500Y-90400452D01*
X138185185Y-90333413D01*
X138201819Y-90312771D01*
X138683772Y-89830819D01*
X138745095Y-89797334D01*
X138771453Y-89794500D01*
X139790765Y-89794500D01*
X139857804Y-89814185D01*
X139903559Y-89866989D01*
X139913503Y-89936147D01*
X139884478Y-89999703D01*
X139853886Y-90025232D01*
X139794625Y-90060278D01*
X139794616Y-90060285D01*
X139680285Y-90174616D01*
X139680278Y-90174625D01*
X139597968Y-90313804D01*
X139597966Y-90313809D01*
X139552855Y-90469081D01*
X139552854Y-90469087D01*
X139551209Y-90489999D01*
X139551210Y-90490000D01*
X140206000Y-90490000D01*
X140273039Y-90509685D01*
X140318794Y-90562489D01*
X140330000Y-90614000D01*
X140330000Y-90740000D01*
X140385500Y-90740000D01*
X140452539Y-90759685D01*
X140498294Y-90812489D01*
X140509500Y-90864000D01*
X140509500Y-90974697D01*
X140512356Y-91010991D01*
X140512357Y-91010997D01*
X140557503Y-91166389D01*
X140557505Y-91166393D01*
X140557506Y-91166395D01*
X140562732Y-91175233D01*
X140580000Y-91238352D01*
X140580000Y-91544503D01*
X140726194Y-91502032D01*
X140746384Y-91490091D01*
X140814108Y-91472906D01*
X140872629Y-91490089D01*
X140893605Y-91502494D01*
X140925282Y-91511697D01*
X141049002Y-91547642D01*
X141049005Y-91547642D01*
X141049007Y-91547643D01*
X141085310Y-91550500D01*
X141085318Y-91550500D01*
X141494682Y-91550500D01*
X141494690Y-91550500D01*
X141530993Y-91547643D01*
X141530995Y-91547642D01*
X141530997Y-91547642D01*
X141571975Y-91535736D01*
X141686395Y-91502494D01*
X141825687Y-91420117D01*
X141940117Y-91305687D01*
X142022494Y-91166395D01*
X142067643Y-91010993D01*
X142070500Y-90974690D01*
X142070500Y-90505310D01*
X142067643Y-90469007D01*
X142045423Y-90392528D01*
X142040500Y-90357934D01*
X142040500Y-90092191D01*
X142011659Y-89947204D01*
X142011658Y-89947203D01*
X142011658Y-89947199D01*
X141955084Y-89810617D01*
X141939064Y-89786642D01*
X141918187Y-89719969D01*
X141936670Y-89652588D01*
X141940234Y-89647601D01*
X141940148Y-89647544D01*
X142022925Y-89523659D01*
X142022925Y-89523658D01*
X142022929Y-89523653D01*
X142077619Y-89391620D01*
X142105500Y-89251455D01*
X142105500Y-89108545D01*
X142105500Y-89108542D01*
X142077620Y-88968385D01*
X142077619Y-88968384D01*
X142077619Y-88968380D01*
X142022929Y-88836347D01*
X142022928Y-88836346D01*
X142022925Y-88836340D01*
X141943532Y-88717521D01*
X141943529Y-88717517D01*
X141928613Y-88702601D01*
X141895128Y-88641278D01*
X141894677Y-88590726D01*
X141895887Y-88584647D01*
X141900500Y-88561455D01*
X141900500Y-88418545D01*
X141900500Y-88418542D01*
X141872620Y-88278385D01*
X141872619Y-88278384D01*
X141872619Y-88278380D01*
X141817929Y-88146347D01*
X141817928Y-88146346D01*
X141817925Y-88146340D01*
X141738532Y-88027521D01*
X141738529Y-88027517D01*
X141661819Y-87950807D01*
X141628334Y-87889484D01*
X141625500Y-87863126D01*
X141625500Y-87458386D01*
X141619086Y-87387807D01*
X141619086Y-87387804D01*
X141568478Y-87225394D01*
X141480472Y-87079815D01*
X141480470Y-87079813D01*
X141480469Y-87079811D01*
X141360188Y-86959530D01*
X141214606Y-86871522D01*
X141081091Y-86829918D01*
X141052196Y-86820914D01*
X141052194Y-86820913D01*
X141052192Y-86820913D01*
X141002778Y-86816423D01*
X140981616Y-86814500D01*
X140468384Y-86814500D01*
X140397804Y-86820914D01*
X140368909Y-86829918D01*
X140274227Y-86859421D01*
X140243384Y-86859928D01*
X140212654Y-86862553D01*
X140208764Y-86860498D01*
X140204367Y-86860571D01*
X140178149Y-86844325D01*
X140150875Y-86829918D01*
X140148713Y-86826086D01*
X140144975Y-86823770D01*
X140131702Y-86795930D01*
X140116547Y-86769063D01*
X140116151Y-86763309D01*
X140114907Y-86760700D01*
X140113544Y-86733896D01*
X140113895Y-86727808D01*
X140114086Y-86727196D01*
X140120500Y-86656616D01*
X140120500Y-86619983D01*
X143689500Y-86619983D01*
X143689500Y-87220001D01*
X143689501Y-87220019D01*
X143700000Y-87322796D01*
X143700001Y-87322799D01*
X143721543Y-87387807D01*
X143755186Y-87489334D01*
X143847288Y-87638656D01*
X143971344Y-87762712D01*
X144120666Y-87854814D01*
X144287203Y-87909999D01*
X144389991Y-87920500D01*
X145440008Y-87920499D01*
X145440016Y-87920498D01*
X145440019Y-87920498D01*
X145496302Y-87914748D01*
X145542797Y-87909999D01*
X145709334Y-87854814D01*
X145858656Y-87762712D01*
X145982712Y-87638656D01*
X146074814Y-87489334D01*
X146129999Y-87322797D01*
X146140500Y-87220009D01*
X146140499Y-86619992D01*
X146139592Y-86611117D01*
X146129999Y-86517203D01*
X146129998Y-86517200D01*
X146074814Y-86350666D01*
X145982712Y-86201344D01*
X145858656Y-86077288D01*
X145855342Y-86075243D01*
X145853546Y-86073248D01*
X145852989Y-86072807D01*
X145853064Y-86072711D01*
X145808618Y-86023297D01*
X145797397Y-85954334D01*
X145825240Y-85890252D01*
X145855348Y-85864165D01*
X145858342Y-85862318D01*
X145982315Y-85738345D01*
X146074356Y-85589124D01*
X146074358Y-85589119D01*
X146129505Y-85422697D01*
X146129506Y-85422690D01*
X146139999Y-85319986D01*
X146140000Y-85319973D01*
X146140000Y-85270000D01*
X143690001Y-85270000D01*
X143690001Y-85319986D01*
X143700494Y-85422697D01*
X143755641Y-85589119D01*
X143755643Y-85589124D01*
X143847684Y-85738345D01*
X143971655Y-85862316D01*
X143971659Y-85862319D01*
X143974656Y-85864168D01*
X143976279Y-85865972D01*
X143977323Y-85866798D01*
X143977181Y-85866976D01*
X144021381Y-85916116D01*
X144032602Y-85985079D01*
X144004759Y-86049161D01*
X143974661Y-86075241D01*
X143971349Y-86077283D01*
X143971343Y-86077288D01*
X143847289Y-86201342D01*
X143755187Y-86350663D01*
X143755186Y-86350666D01*
X143700001Y-86517203D01*
X143700001Y-86517204D01*
X143700000Y-86517204D01*
X143689500Y-86619983D01*
X140120500Y-86619983D01*
X140120500Y-86143384D01*
X140114086Y-86072804D01*
X140063478Y-85910394D01*
X139975472Y-85764815D01*
X139975470Y-85764813D01*
X139975469Y-85764811D01*
X139872984Y-85662326D01*
X139868645Y-85654380D01*
X139861398Y-85648955D01*
X139852163Y-85624195D01*
X139839499Y-85601003D01*
X139840144Y-85591973D01*
X139836981Y-85583491D01*
X139842597Y-85557670D01*
X139844483Y-85531311D01*
X139850301Y-85522257D01*
X139851833Y-85515218D01*
X139872984Y-85486964D01*
X139959247Y-85400701D01*
X140020570Y-85367216D01*
X140059605Y-85368554D01*
X140065000Y-85364504D01*
X140065000Y-85000000D01*
X138170001Y-85000000D01*
X138170001Y-85006582D01*
X138176408Y-85077102D01*
X138176409Y-85077107D01*
X138226981Y-85239396D01*
X138314927Y-85384877D01*
X138417015Y-85486965D01*
X138450500Y-85548288D01*
X138445516Y-85617980D01*
X138417015Y-85662327D01*
X138314531Y-85764810D01*
X138314530Y-85764811D01*
X138226522Y-85910393D01*
X138175913Y-86072807D01*
X138175506Y-86077289D01*
X138169500Y-86143384D01*
X138169500Y-86656616D01*
X138175914Y-86727196D01*
X138203640Y-86816172D01*
X138218886Y-86865101D01*
X138224500Y-86901990D01*
X138224500Y-87229054D01*
X138218886Y-87265943D01*
X138180914Y-87387805D01*
X138174500Y-87458386D01*
X138174500Y-88121613D01*
X138180913Y-88192192D01*
X138180913Y-88192194D01*
X138180914Y-88192196D01*
X138207771Y-88278385D01*
X138231522Y-88354606D01*
X138269231Y-88416984D01*
X138287067Y-88484539D01*
X138265549Y-88551013D01*
X138211509Y-88595300D01*
X138210568Y-88595695D01*
X138164710Y-88614690D01*
X138062267Y-88683141D01*
X138062263Y-88683144D01*
X137597181Y-89148227D01*
X137535858Y-89181712D01*
X137466166Y-89176728D01*
X137410233Y-89134856D01*
X137385816Y-89069392D01*
X137385500Y-89060546D01*
X137385500Y-84190452D01*
X137405185Y-84123413D01*
X137421819Y-84102771D01*
X137872771Y-83651819D01*
X137934094Y-83618334D01*
X137960452Y-83615500D01*
X138701265Y-83615500D01*
X138768304Y-83635185D01*
X138814059Y-83687989D01*
X138824003Y-83757147D01*
X138794978Y-83820703D01*
X138738156Y-83857885D01*
X138580603Y-83906981D01*
X138435122Y-83994927D01*
X138314927Y-84115122D01*
X138226980Y-84260604D01*
X138176409Y-84422893D01*
X138170000Y-84493427D01*
X138170000Y-84500000D01*
X139405000Y-84500000D01*
X139405000Y-84434000D01*
X139424685Y-84366961D01*
X139477489Y-84321206D01*
X139529000Y-84310000D01*
X140191000Y-84310000D01*
X140258039Y-84329685D01*
X140303794Y-84382489D01*
X140315000Y-84434000D01*
X140315000Y-84560000D01*
X140370500Y-84560000D01*
X140437539Y-84579685D01*
X140483294Y-84632489D01*
X140494500Y-84684000D01*
X140494500Y-84794697D01*
X140497356Y-84830991D01*
X140497357Y-84830997D01*
X140542503Y-84986389D01*
X140542505Y-84986393D01*
X140542506Y-84986395D01*
X140547732Y-84995233D01*
X140565000Y-85058352D01*
X140565000Y-85364503D01*
X140711194Y-85322032D01*
X140731384Y-85310091D01*
X140799108Y-85292906D01*
X140857629Y-85310089D01*
X140878605Y-85322494D01*
X140919587Y-85334400D01*
X141034002Y-85367642D01*
X141034005Y-85367642D01*
X141034007Y-85367643D01*
X141070310Y-85370500D01*
X141070318Y-85370500D01*
X141479682Y-85370500D01*
X141479690Y-85370500D01*
X141515993Y-85367643D01*
X141515995Y-85367642D01*
X141515997Y-85367642D01*
X141556975Y-85355736D01*
X141671395Y-85322494D01*
X141810687Y-85240117D01*
X141925117Y-85125687D01*
X142007494Y-84986395D01*
X142052643Y-84830993D01*
X142055500Y-84794690D01*
X142055500Y-84720013D01*
X143690000Y-84720013D01*
X143690000Y-84770000D01*
X144665000Y-84770000D01*
X145165000Y-84770000D01*
X146139999Y-84770000D01*
X146139999Y-84720028D01*
X146139998Y-84720013D01*
X146129505Y-84617302D01*
X146074358Y-84450880D01*
X146074356Y-84450875D01*
X145982315Y-84301654D01*
X145858345Y-84177684D01*
X145709124Y-84085643D01*
X145709119Y-84085641D01*
X145542697Y-84030494D01*
X145542690Y-84030493D01*
X145439986Y-84020000D01*
X145165000Y-84020000D01*
X145165000Y-84770000D01*
X144665000Y-84770000D01*
X144665000Y-84020000D01*
X144390029Y-84020000D01*
X144390012Y-84020001D01*
X144287302Y-84030494D01*
X144120880Y-84085641D01*
X144120875Y-84085643D01*
X143971654Y-84177684D01*
X143847684Y-84301654D01*
X143755643Y-84450875D01*
X143755641Y-84450880D01*
X143700494Y-84617302D01*
X143700493Y-84617309D01*
X143690000Y-84720013D01*
X142055500Y-84720013D01*
X142055500Y-84325310D01*
X142052643Y-84289007D01*
X142030423Y-84212528D01*
X142025500Y-84177934D01*
X142025500Y-83956079D01*
X142004025Y-83848122D01*
X142002193Y-83838912D01*
X141996659Y-83811088D01*
X141949629Y-83697549D01*
X141940084Y-83674505D01*
X141940077Y-83674494D01*
X141854567Y-83546518D01*
X141856611Y-83545151D01*
X141833511Y-83490811D01*
X141845278Y-83421939D01*
X141853571Y-83407522D01*
X141862512Y-83394142D01*
X141902929Y-83333653D01*
X141957619Y-83201620D01*
X141985500Y-83061455D01*
X141985500Y-82918545D01*
X141985500Y-82918542D01*
X141957620Y-82778385D01*
X141957619Y-82778384D01*
X141957619Y-82778380D01*
X141902929Y-82646347D01*
X141902928Y-82646346D01*
X141902925Y-82646340D01*
X141830111Y-82537367D01*
X141809233Y-82470690D01*
X141827717Y-82403310D01*
X141879696Y-82356619D01*
X141933213Y-82344476D01*
X174299210Y-82344476D01*
X174313889Y-82348262D01*
X174326186Y-82347446D01*
X174359191Y-82359948D01*
X174570006Y-82476461D01*
X174581779Y-82483859D01*
X174844789Y-82670475D01*
X174855649Y-82679135D01*
X174966703Y-82778379D01*
X175096127Y-82894039D01*
X175105958Y-82903870D01*
X175246786Y-83061457D01*
X175320859Y-83144344D01*
X175329528Y-83155216D01*
X175516139Y-83418219D01*
X175523538Y-83429993D01*
X175679539Y-83712255D01*
X175685572Y-83724783D01*
X175710061Y-83783904D01*
X175719500Y-83831357D01*
X175719500Y-114568642D01*
X175710061Y-114616096D01*
X175685573Y-114675214D01*
X175679540Y-114687741D01*
X175523538Y-114970006D01*
X175516139Y-114981780D01*
X175329528Y-115244783D01*
X175320859Y-115255655D01*
X175105960Y-115496127D01*
X175096127Y-115505960D01*
X174855655Y-115720859D01*
X174844783Y-115729528D01*
X174581780Y-115916139D01*
X174570006Y-115923538D01*
X174287744Y-116079539D01*
X174275216Y-116085572D01*
X174071242Y-116170061D01*
X174023789Y-116179500D01*
X127906211Y-116179500D01*
X127858758Y-116170061D01*
X127654783Y-116085572D01*
X127642255Y-116079539D01*
X127359993Y-115923538D01*
X127348219Y-115916139D01*
X127085216Y-115729528D01*
X127074344Y-115720859D01*
X126833872Y-115505960D01*
X126824039Y-115496127D01*
X126609140Y-115255655D01*
X126600475Y-115244789D01*
X126413859Y-114981779D01*
X126406461Y-114970006D01*
X126250459Y-114687741D01*
X126244426Y-114675212D01*
X126233915Y-114649836D01*
X126224476Y-114602384D01*
X126224476Y-108961153D01*
X146269500Y-108961153D01*
X146269500Y-109118846D01*
X146300261Y-109273489D01*
X146300264Y-109273501D01*
X146360602Y-109419172D01*
X146360609Y-109419185D01*
X146448210Y-109550288D01*
X146448213Y-109550292D01*
X147068211Y-110170289D01*
X147179711Y-110281789D01*
X147179712Y-110281790D01*
X147310816Y-110369391D01*
X147310817Y-110369391D01*
X147310821Y-110369394D01*
X147397922Y-110405472D01*
X147456502Y-110429737D01*
X147611152Y-110460499D01*
X147611155Y-110460500D01*
X147611157Y-110460500D01*
X147611158Y-110460500D01*
X148199732Y-110460500D01*
X148263881Y-110478383D01*
X148288849Y-110493476D01*
X148305394Y-110503478D01*
X148467804Y-110554086D01*
X148538384Y-110560500D01*
X148538387Y-110560500D01*
X149201613Y-110560500D01*
X149201616Y-110560500D01*
X149272196Y-110554086D01*
X149434606Y-110503478D01*
X149463642Y-110485925D01*
X149476119Y-110478383D01*
X149540268Y-110460500D01*
X150756274Y-110460500D01*
X150820423Y-110478383D01*
X150832900Y-110485925D01*
X150845394Y-110493478D01*
X151007804Y-110544086D01*
X151078384Y-110550500D01*
X151078387Y-110550500D01*
X151741613Y-110550500D01*
X151741616Y-110550500D01*
X151812196Y-110544086D01*
X151974606Y-110493478D01*
X151989099Y-110484716D01*
X151999577Y-110478383D01*
X152063726Y-110460500D01*
X153296274Y-110460500D01*
X153360423Y-110478383D01*
X153372900Y-110485925D01*
X153385394Y-110493478D01*
X153547804Y-110544086D01*
X153618384Y-110550500D01*
X153618387Y-110550500D01*
X154281613Y-110550500D01*
X154281616Y-110550500D01*
X154352196Y-110544086D01*
X154514606Y-110493478D01*
X154529099Y-110484716D01*
X154539577Y-110478383D01*
X154603726Y-110460500D01*
X155836274Y-110460500D01*
X155900423Y-110478383D01*
X155912900Y-110485925D01*
X155925394Y-110493478D01*
X156087804Y-110544086D01*
X156158384Y-110550500D01*
X156158387Y-110550500D01*
X156821613Y-110550500D01*
X156821616Y-110550500D01*
X156892196Y-110544086D01*
X157054606Y-110493478D01*
X157200185Y-110405472D01*
X157320472Y-110285185D01*
X157408478Y-110139606D01*
X157459086Y-109977196D01*
X157464137Y-109921617D01*
X164510000Y-109921617D01*
X164510000Y-110118382D01*
X164540778Y-110312705D01*
X164601581Y-110499835D01*
X164690905Y-110675145D01*
X164716319Y-110710125D01*
X164716320Y-110710125D01*
X165277037Y-110149408D01*
X165294075Y-110212993D01*
X165359901Y-110327007D01*
X165452993Y-110420099D01*
X165567007Y-110485925D01*
X165630590Y-110502962D01*
X165069873Y-111063677D01*
X165069873Y-111063678D01*
X165104858Y-111089096D01*
X165280164Y-111178418D01*
X165467294Y-111239221D01*
X165661618Y-111270000D01*
X165858382Y-111270000D01*
X166052705Y-111239221D01*
X166239835Y-111178418D01*
X166415143Y-111089095D01*
X166450125Y-111063678D01*
X166450126Y-111063678D01*
X165889410Y-110502962D01*
X165952993Y-110485925D01*
X166067007Y-110420099D01*
X166160099Y-110327007D01*
X166225925Y-110212993D01*
X166242962Y-110149410D01*
X166803678Y-110710126D01*
X166803678Y-110710125D01*
X166829095Y-110675143D01*
X166918418Y-110499835D01*
X166979221Y-110312705D01*
X167010000Y-110118382D01*
X167010000Y-109921617D01*
X167009994Y-109921577D01*
X168009500Y-109921577D01*
X168009500Y-110118422D01*
X168040290Y-110312826D01*
X168101117Y-110500029D01*
X168128661Y-110554086D01*
X168190476Y-110675405D01*
X168306172Y-110834646D01*
X168445354Y-110973828D01*
X168604595Y-111089524D01*
X168687455Y-111131743D01*
X168779970Y-111178882D01*
X168779972Y-111178882D01*
X168779975Y-111178884D01*
X168880317Y-111211487D01*
X168967173Y-111239709D01*
X169161578Y-111270500D01*
X169161583Y-111270500D01*
X169358422Y-111270500D01*
X169552826Y-111239709D01*
X169554328Y-111239221D01*
X169740025Y-111178884D01*
X169915405Y-111089524D01*
X170074646Y-110973828D01*
X170213828Y-110834646D01*
X170329524Y-110675405D01*
X170418884Y-110500025D01*
X170479709Y-110312826D01*
X170495521Y-110212993D01*
X170510500Y-110118422D01*
X170510500Y-109921577D01*
X170479709Y-109727173D01*
X170418882Y-109539970D01*
X170357332Y-109419172D01*
X170329524Y-109364595D01*
X170213828Y-109205354D01*
X170074646Y-109066172D01*
X169915405Y-108950476D01*
X169740029Y-108861117D01*
X169552826Y-108800290D01*
X169358422Y-108769500D01*
X169358417Y-108769500D01*
X169161583Y-108769500D01*
X169161578Y-108769500D01*
X168967173Y-108800290D01*
X168779970Y-108861117D01*
X168604594Y-108950476D01*
X168516046Y-109014811D01*
X168445354Y-109066172D01*
X168445352Y-109066174D01*
X168445351Y-109066174D01*
X168306174Y-109205351D01*
X168306174Y-109205352D01*
X168306172Y-109205354D01*
X168256669Y-109273489D01*
X168190476Y-109364594D01*
X168101117Y-109539970D01*
X168040290Y-109727173D01*
X168009500Y-109921577D01*
X167009994Y-109921577D01*
X166979221Y-109727294D01*
X166918418Y-109540164D01*
X166829096Y-109364858D01*
X166803678Y-109329873D01*
X166803677Y-109329873D01*
X166242962Y-109890589D01*
X166225925Y-109827007D01*
X166160099Y-109712993D01*
X166067007Y-109619901D01*
X165952993Y-109554075D01*
X165889409Y-109537037D01*
X166450125Y-108976320D01*
X166450125Y-108976319D01*
X166415145Y-108950905D01*
X166239835Y-108861581D01*
X166052705Y-108800778D01*
X165858382Y-108770000D01*
X165661618Y-108770000D01*
X165467294Y-108800778D01*
X165280161Y-108861582D01*
X165104863Y-108950899D01*
X165104859Y-108950902D01*
X165069873Y-108976320D01*
X165069872Y-108976320D01*
X165630590Y-109537037D01*
X165567007Y-109554075D01*
X165452993Y-109619901D01*
X165359901Y-109712993D01*
X165294075Y-109827007D01*
X165277037Y-109890590D01*
X164716320Y-109329872D01*
X164716320Y-109329873D01*
X164690902Y-109364859D01*
X164690899Y-109364863D01*
X164601582Y-109540161D01*
X164540778Y-109727294D01*
X164510000Y-109921617D01*
X157464137Y-109921617D01*
X157465500Y-109906616D01*
X157465500Y-109393384D01*
X157459086Y-109322804D01*
X157408478Y-109160394D01*
X157320472Y-109014815D01*
X157320470Y-109014813D01*
X157320469Y-109014811D01*
X157218339Y-108912681D01*
X157184854Y-108851358D01*
X157189838Y-108781666D01*
X157218339Y-108737319D01*
X157320468Y-108635189D01*
X157320469Y-108635188D01*
X157320472Y-108635185D01*
X157408478Y-108489606D01*
X157459086Y-108327196D01*
X157465500Y-108256616D01*
X157465500Y-107743384D01*
X157459086Y-107672804D01*
X157408478Y-107510394D01*
X157349772Y-107413284D01*
X157331937Y-107345730D01*
X157349772Y-107284987D01*
X157413478Y-107179606D01*
X157464086Y-107017196D01*
X157470500Y-106946616D01*
X157470500Y-106433384D01*
X157464086Y-106362804D01*
X157413478Y-106200394D01*
X157325472Y-106054815D01*
X157325470Y-106054813D01*
X157325469Y-106054811D01*
X157222984Y-105952326D01*
X157189499Y-105891003D01*
X157194483Y-105821311D01*
X157222985Y-105776963D01*
X157325071Y-105674878D01*
X157325072Y-105674877D01*
X157413019Y-105529395D01*
X157463590Y-105367106D01*
X157470000Y-105296572D01*
X157470000Y-105290000D01*
X155520001Y-105290000D01*
X155520001Y-105296582D01*
X155526408Y-105367102D01*
X155526409Y-105367107D01*
X155576981Y-105529396D01*
X155664927Y-105674877D01*
X155767015Y-105776965D01*
X155800500Y-105838288D01*
X155795516Y-105907980D01*
X155767015Y-105952327D01*
X155664531Y-106054810D01*
X155664530Y-106054811D01*
X155576522Y-106200393D01*
X155525913Y-106362807D01*
X155520782Y-106419275D01*
X155519500Y-106433384D01*
X155519500Y-106946616D01*
X155520409Y-106956616D01*
X155525913Y-107017192D01*
X155576522Y-107179606D01*
X155635226Y-107276714D01*
X155653062Y-107344269D01*
X155635226Y-107405013D01*
X155571523Y-107510391D01*
X155520913Y-107672807D01*
X155515782Y-107729275D01*
X155514500Y-107743384D01*
X155514500Y-108256616D01*
X155515409Y-108266616D01*
X155520913Y-108327192D01*
X155520913Y-108327194D01*
X155520914Y-108327196D01*
X155556170Y-108440338D01*
X155571522Y-108489606D01*
X155659530Y-108635188D01*
X155672161Y-108647819D01*
X155705646Y-108709142D01*
X155700662Y-108778834D01*
X155658790Y-108834767D01*
X155593326Y-108859184D01*
X155584480Y-108859500D01*
X154855520Y-108859500D01*
X154788481Y-108839815D01*
X154742726Y-108787011D01*
X154732782Y-108717853D01*
X154761807Y-108654297D01*
X154767839Y-108647819D01*
X154780468Y-108635189D01*
X154780469Y-108635188D01*
X154780472Y-108635185D01*
X154868478Y-108489606D01*
X154919086Y-108327196D01*
X154925500Y-108256616D01*
X154925500Y-107743384D01*
X154919086Y-107672804D01*
X154868478Y-107510394D01*
X154807272Y-107409148D01*
X154789437Y-107341596D01*
X154807272Y-107280851D01*
X154868478Y-107179606D01*
X154919086Y-107017196D01*
X154925500Y-106946616D01*
X154925500Y-106433384D01*
X154919086Y-106362804D01*
X154868478Y-106200394D01*
X154780472Y-106054815D01*
X154780470Y-106054813D01*
X154780469Y-106054811D01*
X154677984Y-105952326D01*
X154644499Y-105891003D01*
X154649483Y-105821311D01*
X154677985Y-105776963D01*
X154780071Y-105674878D01*
X154780072Y-105674877D01*
X154868019Y-105529395D01*
X154918590Y-105367106D01*
X154925000Y-105296572D01*
X154925000Y-105290000D01*
X152975001Y-105290000D01*
X152975001Y-105296582D01*
X152981408Y-105367102D01*
X152981409Y-105367107D01*
X153031981Y-105529396D01*
X153119927Y-105674877D01*
X153222015Y-105776965D01*
X153255500Y-105838288D01*
X153250516Y-105907980D01*
X153222015Y-105952327D01*
X153119531Y-106054810D01*
X153119530Y-106054811D01*
X153031522Y-106200393D01*
X152980913Y-106362807D01*
X152975782Y-106419275D01*
X152974500Y-106433384D01*
X152974500Y-106946616D01*
X152975409Y-106956616D01*
X152980913Y-107017192D01*
X153031523Y-107179608D01*
X153092726Y-107280851D01*
X153110562Y-107348405D01*
X153092726Y-107409149D01*
X153031523Y-107510391D01*
X152980913Y-107672807D01*
X152975782Y-107729275D01*
X152974500Y-107743384D01*
X152974500Y-108256616D01*
X152975409Y-108266616D01*
X152980913Y-108327192D01*
X152980913Y-108327194D01*
X152980914Y-108327196D01*
X153016170Y-108440338D01*
X153031522Y-108489606D01*
X153119530Y-108635188D01*
X153132161Y-108647819D01*
X153165646Y-108709142D01*
X153160662Y-108778834D01*
X153118790Y-108834767D01*
X153053326Y-108859184D01*
X153044480Y-108859500D01*
X152315520Y-108859500D01*
X152248481Y-108839815D01*
X152202726Y-108787011D01*
X152192782Y-108717853D01*
X152221807Y-108654297D01*
X152227839Y-108647819D01*
X152240468Y-108635189D01*
X152240469Y-108635188D01*
X152240472Y-108635185D01*
X152328478Y-108489606D01*
X152379086Y-108327196D01*
X152385500Y-108256616D01*
X152385500Y-107743384D01*
X152379086Y-107672804D01*
X152328478Y-107510394D01*
X152267272Y-107409148D01*
X152249437Y-107341596D01*
X152267272Y-107280851D01*
X152328478Y-107179606D01*
X152379086Y-107017196D01*
X152385500Y-106946616D01*
X152385500Y-106433384D01*
X152379086Y-106362804D01*
X152328478Y-106200394D01*
X152240472Y-106054815D01*
X152240470Y-106054813D01*
X152240469Y-106054811D01*
X152137984Y-105952326D01*
X152104499Y-105891003D01*
X152109483Y-105821311D01*
X152137985Y-105776963D01*
X152240071Y-105674878D01*
X152240072Y-105674877D01*
X152328019Y-105529395D01*
X152378590Y-105367106D01*
X152385000Y-105296572D01*
X152385000Y-105290000D01*
X150435001Y-105290000D01*
X150435001Y-105296582D01*
X150441408Y-105367102D01*
X150441409Y-105367107D01*
X150491981Y-105529396D01*
X150579927Y-105674877D01*
X150682015Y-105776965D01*
X150715500Y-105838288D01*
X150710516Y-105907980D01*
X150682015Y-105952327D01*
X150579531Y-106054810D01*
X150579530Y-106054811D01*
X150491522Y-106200393D01*
X150440913Y-106362807D01*
X150435782Y-106419275D01*
X150434500Y-106433384D01*
X150434500Y-106946616D01*
X150435409Y-106956616D01*
X150440913Y-107017192D01*
X150491523Y-107179608D01*
X150552726Y-107280851D01*
X150570562Y-107348405D01*
X150552726Y-107409149D01*
X150491523Y-107510391D01*
X150440913Y-107672807D01*
X150435782Y-107729275D01*
X150434500Y-107743384D01*
X150434500Y-108256616D01*
X150435409Y-108266616D01*
X150440913Y-108327192D01*
X150440913Y-108327194D01*
X150440914Y-108327196D01*
X150476170Y-108440338D01*
X150491522Y-108489606D01*
X150579530Y-108635188D01*
X150592161Y-108647819D01*
X150625646Y-108709142D01*
X150620662Y-108778834D01*
X150578790Y-108834767D01*
X150513326Y-108859184D01*
X150504480Y-108859500D01*
X149785520Y-108859500D01*
X149718481Y-108839815D01*
X149672726Y-108787011D01*
X149662782Y-108717853D01*
X149691807Y-108654297D01*
X149697839Y-108647819D01*
X149700468Y-108645189D01*
X149700469Y-108645188D01*
X149700472Y-108645185D01*
X149788478Y-108499606D01*
X149839086Y-108337196D01*
X149845500Y-108266616D01*
X149845500Y-107753384D01*
X149839086Y-107682804D01*
X149788478Y-107520394D01*
X149727272Y-107419148D01*
X149709437Y-107351596D01*
X149727272Y-107290851D01*
X149788478Y-107189606D01*
X149839086Y-107027196D01*
X149845500Y-106956616D01*
X149845500Y-106443384D01*
X149839086Y-106372804D01*
X149788478Y-106210394D01*
X149700472Y-106064815D01*
X149700470Y-106064813D01*
X149700469Y-106064811D01*
X149597984Y-105962326D01*
X149564499Y-105901003D01*
X149569483Y-105831311D01*
X149597985Y-105786963D01*
X149700071Y-105684878D01*
X149700072Y-105684877D01*
X149788019Y-105539395D01*
X149838590Y-105377106D01*
X149845000Y-105306572D01*
X149845000Y-105300000D01*
X147895001Y-105300000D01*
X147895001Y-105306582D01*
X147901408Y-105377102D01*
X147901409Y-105377107D01*
X147951981Y-105539396D01*
X148039927Y-105684877D01*
X148142015Y-105786965D01*
X148175500Y-105848288D01*
X148170516Y-105917980D01*
X148142015Y-105962327D01*
X148039531Y-106064810D01*
X148039530Y-106064811D01*
X147951522Y-106210393D01*
X147900913Y-106372807D01*
X147894500Y-106443386D01*
X147894500Y-106956613D01*
X147900913Y-107027192D01*
X147951523Y-107189608D01*
X148012726Y-107290851D01*
X148030562Y-107358405D01*
X148012726Y-107419149D01*
X147951523Y-107520391D01*
X147900913Y-107682807D01*
X147895782Y-107739275D01*
X147894500Y-107753384D01*
X147894500Y-108266616D01*
X147900914Y-108337196D01*
X147933054Y-108440338D01*
X147934204Y-108510198D01*
X147897403Y-108569590D01*
X147834334Y-108599658D01*
X147765021Y-108590854D01*
X147726987Y-108564908D01*
X147580292Y-108418213D01*
X147580288Y-108418210D01*
X147449185Y-108330609D01*
X147449172Y-108330602D01*
X147303501Y-108270264D01*
X147303489Y-108270261D01*
X147148845Y-108239500D01*
X147148842Y-108239500D01*
X146991158Y-108239500D01*
X146991155Y-108239500D01*
X146836510Y-108270261D01*
X146836498Y-108270264D01*
X146690827Y-108330602D01*
X146690814Y-108330609D01*
X146559711Y-108418210D01*
X146559707Y-108418213D01*
X146448213Y-108529707D01*
X146448210Y-108529711D01*
X146360609Y-108660814D01*
X146360602Y-108660827D01*
X146300264Y-108806498D01*
X146300261Y-108806510D01*
X146269500Y-108961153D01*
X126224476Y-108961153D01*
X126224476Y-105191457D01*
X137214496Y-105191457D01*
X137242376Y-105331614D01*
X137242378Y-105331620D01*
X137297066Y-105463650D01*
X137297071Y-105463659D01*
X137376464Y-105582478D01*
X137376467Y-105582482D01*
X137477514Y-105683529D01*
X137477518Y-105683532D01*
X137596337Y-105762925D01*
X137596343Y-105762928D01*
X137596344Y-105762929D01*
X137728377Y-105817619D01*
X137728381Y-105817619D01*
X137728382Y-105817620D01*
X137868539Y-105845500D01*
X137868542Y-105845500D01*
X138011454Y-105845500D01*
X138133056Y-105821311D01*
X138151617Y-105817619D01*
X138217545Y-105790309D01*
X138287013Y-105782841D01*
X138312451Y-105790310D01*
X138378380Y-105817619D01*
X138378384Y-105817619D01*
X138378385Y-105817620D01*
X138518542Y-105845500D01*
X138518545Y-105845500D01*
X138661457Y-105845500D01*
X138783059Y-105821311D01*
X138801620Y-105817619D01*
X138855475Y-105795310D01*
X138924942Y-105787841D01*
X138950375Y-105795308D01*
X139028380Y-105827619D01*
X139028384Y-105827619D01*
X139028385Y-105827620D01*
X139168542Y-105855500D01*
X139168545Y-105855500D01*
X139311457Y-105855500D01*
X139433059Y-105831311D01*
X139451620Y-105827619D01*
X139583653Y-105772929D01*
X139702479Y-105693532D01*
X139803532Y-105592479D01*
X139882929Y-105473653D01*
X139937619Y-105341620D01*
X139965500Y-105201455D01*
X139965500Y-105181999D01*
X139985185Y-105114960D01*
X140037989Y-105069205D01*
X140089500Y-105057999D01*
X140538106Y-105057999D01*
X140538109Y-105057999D01*
X140608689Y-105051585D01*
X140771099Y-105000977D01*
X140916678Y-104912971D01*
X140921270Y-104908379D01*
X141018812Y-104810838D01*
X141080135Y-104777353D01*
X141149827Y-104782337D01*
X141194174Y-104810838D01*
X141296304Y-104912968D01*
X141296306Y-104912969D01*
X141296308Y-104912971D01*
X141441887Y-105000977D01*
X141604297Y-105051585D01*
X141674877Y-105057999D01*
X141674880Y-105057999D01*
X142188106Y-105057999D01*
X142188109Y-105057999D01*
X142258689Y-105051585D01*
X142421099Y-105000977D01*
X142566678Y-104912971D01*
X142686222Y-104793427D01*
X147895000Y-104793427D01*
X147895000Y-104800000D01*
X148620000Y-104800000D01*
X149120000Y-104800000D01*
X149844999Y-104800000D01*
X149844999Y-104793425D01*
X149844855Y-104791841D01*
X149844855Y-104791834D01*
X149844091Y-104783427D01*
X150435000Y-104783427D01*
X150435000Y-104790000D01*
X151160000Y-104790000D01*
X151660000Y-104790000D01*
X152384999Y-104790000D01*
X152384999Y-104783427D01*
X152975000Y-104783427D01*
X152975000Y-104790000D01*
X153700000Y-104790000D01*
X154200000Y-104790000D01*
X154924999Y-104790000D01*
X154924999Y-104783427D01*
X155520000Y-104783427D01*
X155520000Y-104790000D01*
X156245000Y-104790000D01*
X156745000Y-104790000D01*
X157469999Y-104790000D01*
X157469999Y-104783417D01*
X157463591Y-104712897D01*
X157463590Y-104712892D01*
X157413018Y-104550603D01*
X157325072Y-104405122D01*
X157204877Y-104284927D01*
X157059395Y-104196980D01*
X157059396Y-104196980D01*
X156897105Y-104146409D01*
X156897106Y-104146409D01*
X156826572Y-104140000D01*
X156745000Y-104140000D01*
X156745000Y-104790000D01*
X156245000Y-104790000D01*
X156245000Y-104140000D01*
X156244999Y-104139999D01*
X156163417Y-104140000D01*
X156092897Y-104146408D01*
X156092892Y-104146409D01*
X155930603Y-104196981D01*
X155785122Y-104284927D01*
X155664927Y-104405122D01*
X155576980Y-104550604D01*
X155526409Y-104712893D01*
X155520000Y-104783427D01*
X154924999Y-104783427D01*
X154924999Y-104783417D01*
X154918591Y-104712897D01*
X154918590Y-104712892D01*
X154868018Y-104550603D01*
X154780072Y-104405122D01*
X154659877Y-104284927D01*
X154514395Y-104196980D01*
X154514396Y-104196980D01*
X154352105Y-104146409D01*
X154352106Y-104146409D01*
X154281572Y-104140000D01*
X154200000Y-104140000D01*
X154200000Y-104790000D01*
X153700000Y-104790000D01*
X153700000Y-104140000D01*
X153699999Y-104139999D01*
X153618417Y-104140000D01*
X153547897Y-104146408D01*
X153547892Y-104146409D01*
X153385603Y-104196981D01*
X153240122Y-104284927D01*
X153119927Y-104405122D01*
X153031980Y-104550604D01*
X152981409Y-104712893D01*
X152975000Y-104783427D01*
X152384999Y-104783427D01*
X152384999Y-104783417D01*
X152378591Y-104712897D01*
X152378590Y-104712892D01*
X152328018Y-104550603D01*
X152240072Y-104405122D01*
X152119877Y-104284927D01*
X151974395Y-104196980D01*
X151974396Y-104196980D01*
X151812105Y-104146409D01*
X151812106Y-104146409D01*
X151741572Y-104140000D01*
X151660000Y-104140000D01*
X151660000Y-104790000D01*
X151160000Y-104790000D01*
X151160000Y-104140000D01*
X151159999Y-104139999D01*
X151078417Y-104140000D01*
X151007897Y-104146408D01*
X151007892Y-104146409D01*
X150845603Y-104196981D01*
X150700122Y-104284927D01*
X150579927Y-104405122D01*
X150491980Y-104550604D01*
X150441409Y-104712893D01*
X150435000Y-104783427D01*
X149844091Y-104783427D01*
X149838591Y-104722897D01*
X149838590Y-104722892D01*
X149788018Y-104560603D01*
X149700072Y-104415122D01*
X149579877Y-104294927D01*
X149434395Y-104206980D01*
X149434396Y-104206980D01*
X149272105Y-104156409D01*
X149272106Y-104156409D01*
X149201572Y-104150000D01*
X149120000Y-104150000D01*
X149120000Y-104800000D01*
X148620000Y-104800000D01*
X148620000Y-104150000D01*
X148619999Y-104149999D01*
X148538417Y-104150000D01*
X148467897Y-104156408D01*
X148467892Y-104156409D01*
X148305603Y-104206981D01*
X148160122Y-104294927D01*
X148039927Y-104415122D01*
X147951980Y-104560604D01*
X147901409Y-104722893D01*
X147895000Y-104793427D01*
X142686222Y-104793427D01*
X142686965Y-104792684D01*
X142774971Y-104647105D01*
X142825579Y-104484695D01*
X142831993Y-104414115D01*
X142831993Y-103750883D01*
X142825579Y-103680303D01*
X142774971Y-103517893D01*
X142713765Y-103416647D01*
X142695930Y-103349095D01*
X142713765Y-103288350D01*
X142774971Y-103187105D01*
X142825579Y-103024695D01*
X142831993Y-102954115D01*
X142831993Y-102290883D01*
X142825579Y-102220303D01*
X142774971Y-102057893D01*
X142713765Y-101956647D01*
X142695930Y-101889095D01*
X142713765Y-101828350D01*
X142774971Y-101727105D01*
X142825579Y-101564695D01*
X142831993Y-101494115D01*
X142831993Y-100830883D01*
X142825579Y-100760303D01*
X142774971Y-100597893D01*
X142686965Y-100452314D01*
X142686963Y-100452312D01*
X142686962Y-100452310D01*
X142566681Y-100332029D01*
X142421099Y-100244021D01*
X142258689Y-100193413D01*
X142258687Y-100193412D01*
X142258685Y-100193412D01*
X142209271Y-100188922D01*
X142188109Y-100186999D01*
X141674877Y-100186999D01*
X141655638Y-100188747D01*
X141604300Y-100193412D01*
X141441886Y-100244021D01*
X141296304Y-100332029D01*
X141296303Y-100332030D01*
X141194174Y-100434160D01*
X141132851Y-100467645D01*
X141063159Y-100462661D01*
X141018812Y-100434160D01*
X140916681Y-100332029D01*
X140771099Y-100244021D01*
X140608689Y-100193413D01*
X140608687Y-100193412D01*
X140608685Y-100193412D01*
X140559271Y-100188922D01*
X140538109Y-100186999D01*
X140024877Y-100186999D01*
X140005638Y-100188747D01*
X139954300Y-100193412D01*
X139791886Y-100244021D01*
X139646304Y-100332029D01*
X139646304Y-100332030D01*
X139602656Y-100375679D01*
X139541333Y-100409165D01*
X139514974Y-100411999D01*
X139467573Y-100411999D01*
X139322585Y-100440839D01*
X139322575Y-100440842D01*
X139186004Y-100497411D01*
X139185991Y-100497418D01*
X139063077Y-100579547D01*
X139063073Y-100579550D01*
X138648545Y-100994077D01*
X138648542Y-100994080D01*
X138602840Y-101062478D01*
X138602841Y-101062479D01*
X138566407Y-101117007D01*
X138509836Y-101253581D01*
X138509833Y-101253591D01*
X138480993Y-101398578D01*
X138480993Y-101461690D01*
X138461308Y-101528729D01*
X138444674Y-101549371D01*
X137444727Y-102549317D01*
X137444724Y-102549320D01*
X137389798Y-102631523D01*
X137389799Y-102631524D01*
X137373536Y-102655863D01*
X137373533Y-102655869D01*
X137324499Y-102774247D01*
X137324497Y-102774253D01*
X137299500Y-102899920D01*
X137299500Y-104745810D01*
X137290061Y-104793263D01*
X137242378Y-104908379D01*
X137242376Y-104908385D01*
X137214497Y-105048542D01*
X137214497Y-105048545D01*
X137214497Y-105191455D01*
X137214497Y-105191457D01*
X137214496Y-105191457D01*
X126224476Y-105191457D01*
X126224476Y-102791582D01*
X133177690Y-102791582D01*
X133184097Y-102862102D01*
X133184098Y-102862107D01*
X133234670Y-103024396D01*
X133322616Y-103169877D01*
X133442811Y-103290072D01*
X133588293Y-103378019D01*
X133588292Y-103378019D01*
X133750583Y-103428590D01*
X133750581Y-103428590D01*
X133821107Y-103434999D01*
X133902688Y-103434998D01*
X133902689Y-103434998D01*
X133902689Y-102785000D01*
X133177690Y-102785000D01*
X133177690Y-102791582D01*
X126224476Y-102791582D01*
X126224476Y-100628386D01*
X133177189Y-100628386D01*
X133177189Y-101141613D01*
X133183602Y-101212192D01*
X133183602Y-101212194D01*
X133183603Y-101212196D01*
X133196502Y-101253591D01*
X133234211Y-101374606D01*
X133322219Y-101520188D01*
X133424704Y-101622673D01*
X133458189Y-101683996D01*
X133453205Y-101753688D01*
X133424704Y-101798035D01*
X133322617Y-101900121D01*
X133322616Y-101900122D01*
X133234669Y-102045604D01*
X133184098Y-102207893D01*
X133177689Y-102278427D01*
X133177689Y-102285000D01*
X134028689Y-102285000D01*
X134095728Y-102304685D01*
X134141483Y-102357489D01*
X134152689Y-102409000D01*
X134152689Y-102535000D01*
X134278689Y-102535000D01*
X134345728Y-102554685D01*
X134391483Y-102607489D01*
X134402689Y-102659000D01*
X134402689Y-103434999D01*
X134484270Y-103434999D01*
X134554791Y-103428591D01*
X134554796Y-103428590D01*
X134717087Y-103378018D01*
X134816709Y-103317794D01*
X134884264Y-103299957D01*
X134945008Y-103317792D01*
X135045394Y-103378478D01*
X135207804Y-103429086D01*
X135278384Y-103435500D01*
X135278387Y-103435500D01*
X135941613Y-103435500D01*
X135941616Y-103435500D01*
X136012196Y-103429086D01*
X136174606Y-103378478D01*
X136320185Y-103290472D01*
X136440472Y-103170185D01*
X136528478Y-103024606D01*
X136579086Y-102862196D01*
X136585500Y-102791616D01*
X136585500Y-102556999D01*
X136605185Y-102489960D01*
X136657989Y-102444205D01*
X136709500Y-102432999D01*
X136922655Y-102432999D01*
X137043301Y-102409000D01*
X137067648Y-102404157D01*
X137204230Y-102347583D01*
X137327151Y-102265450D01*
X137431686Y-102160915D01*
X137513819Y-102037994D01*
X137570393Y-101901412D01*
X137579831Y-101853961D01*
X137599235Y-101756419D01*
X137599235Y-101608578D01*
X137570394Y-101463591D01*
X137570393Y-101463590D01*
X137570393Y-101463586D01*
X137543466Y-101398578D01*
X137513822Y-101327010D01*
X137513815Y-101326997D01*
X137431686Y-101204083D01*
X137431683Y-101204079D01*
X137327154Y-101099550D01*
X137327150Y-101099547D01*
X137204236Y-101017418D01*
X137204223Y-101017411D01*
X137067652Y-100960842D01*
X137067642Y-100960839D01*
X136922655Y-100931999D01*
X136922653Y-100931999D01*
X136709500Y-100931999D01*
X136642461Y-100912314D01*
X136596706Y-100859510D01*
X136585500Y-100807999D01*
X136585500Y-100628386D01*
X136579086Y-100557807D01*
X136579086Y-100557804D01*
X136528478Y-100395394D01*
X136440472Y-100249815D01*
X136440470Y-100249813D01*
X136440469Y-100249811D01*
X136396819Y-100206161D01*
X136363334Y-100144838D01*
X136360500Y-100118480D01*
X136360500Y-99906079D01*
X136331659Y-99761092D01*
X136331658Y-99761091D01*
X136331658Y-99761087D01*
X136330542Y-99758393D01*
X136275087Y-99624511D01*
X136275080Y-99624498D01*
X136192952Y-99501585D01*
X136190259Y-99498892D01*
X136088416Y-99397049D01*
X135688421Y-98997052D01*
X135688418Y-98997049D01*
X135609771Y-98944500D01*
X135565495Y-98914916D01*
X135565492Y-98914914D01*
X135565491Y-98914914D01*
X135428917Y-98858343D01*
X135428907Y-98858340D01*
X135283920Y-98829500D01*
X135283918Y-98829500D01*
X134953918Y-98829500D01*
X134476082Y-98829500D01*
X134476076Y-98829500D01*
X134447242Y-98835234D01*
X134447243Y-98835235D01*
X134331093Y-98858339D01*
X134331083Y-98858342D01*
X134251081Y-98891479D01*
X134251082Y-98891480D01*
X134194506Y-98914915D01*
X134149881Y-98944733D01*
X134071582Y-98997049D01*
X134071579Y-98997052D01*
X133569738Y-99498892D01*
X133569737Y-99498893D01*
X133550190Y-99528149D01*
X133540481Y-99542681D01*
X133513952Y-99582384D01*
X133487603Y-99621818D01*
X133431032Y-99758393D01*
X133431029Y-99758403D01*
X133402189Y-99903390D01*
X133402189Y-100118480D01*
X133382504Y-100185519D01*
X133365870Y-100206161D01*
X133322220Y-100249810D01*
X133322219Y-100249811D01*
X133234211Y-100395393D01*
X133183602Y-100557807D01*
X133177189Y-100628386D01*
X126224476Y-100628386D01*
X126224476Y-96428322D01*
X128020001Y-96428322D01*
X128030144Y-96527607D01*
X128083452Y-96688481D01*
X128083457Y-96688492D01*
X128172424Y-96832728D01*
X128172427Y-96832732D01*
X128292267Y-96952572D01*
X128292271Y-96952575D01*
X128436507Y-97041542D01*
X128436518Y-97041547D01*
X128597393Y-97094855D01*
X128696683Y-97104999D01*
X128720000Y-97104998D01*
X128720000Y-96380000D01*
X128020001Y-96380000D01*
X128020001Y-96428322D01*
X126224476Y-96428322D01*
X126224476Y-94500000D01*
X127620001Y-94500000D01*
X127620001Y-94774986D01*
X127630494Y-94877697D01*
X127685641Y-95044119D01*
X127685643Y-95044124D01*
X127777684Y-95193345D01*
X127901654Y-95317315D01*
X128041391Y-95403506D01*
X128088115Y-95455454D01*
X128099338Y-95524417D01*
X128085269Y-95564390D01*
X128086507Y-95564968D01*
X128083452Y-95571518D01*
X128030144Y-95732393D01*
X128020000Y-95831677D01*
X128020000Y-95880000D01*
X128846000Y-95880000D01*
X128913039Y-95899685D01*
X128958794Y-95952489D01*
X128970000Y-96004000D01*
X128970000Y-96130000D01*
X129096000Y-96130000D01*
X129163039Y-96149685D01*
X129208794Y-96202489D01*
X129220000Y-96254000D01*
X129220000Y-97104999D01*
X129243308Y-97104999D01*
X129243322Y-97104998D01*
X129342607Y-97094855D01*
X129503481Y-97041547D01*
X129503492Y-97041542D01*
X129647731Y-96952573D01*
X129656959Y-96943345D01*
X129718279Y-96909856D01*
X129787971Y-96914835D01*
X129832327Y-96943339D01*
X129841955Y-96952967D01*
X129841959Y-96952970D01*
X129986294Y-97041998D01*
X129986297Y-97041999D01*
X129986303Y-97042003D01*
X130147292Y-97095349D01*
X130246655Y-97105500D01*
X130793344Y-97105499D01*
X130793352Y-97105498D01*
X130793355Y-97105498D01*
X130847760Y-97099940D01*
X130892708Y-97095349D01*
X131053697Y-97042003D01*
X131053698Y-97042001D01*
X131060552Y-97039731D01*
X131060802Y-97040487D01*
X131105855Y-97030500D01*
X131858693Y-97030500D01*
X131858694Y-97030499D01*
X131916682Y-97018964D01*
X132032658Y-96995896D01*
X132032661Y-96995894D01*
X132032666Y-96995894D01*
X132196547Y-96928013D01*
X132344035Y-96829464D01*
X132469464Y-96704035D01*
X132568013Y-96556547D01*
X132635894Y-96392666D01*
X132638414Y-96380000D01*
X132658964Y-96276682D01*
X132670500Y-96218691D01*
X132670500Y-96041309D01*
X132670500Y-96041306D01*
X132670499Y-96041304D01*
X132635896Y-95867341D01*
X132635893Y-95867332D01*
X132568016Y-95703459D01*
X132568009Y-95703446D01*
X132469464Y-95555965D01*
X132469461Y-95555961D01*
X132344038Y-95430538D01*
X132344034Y-95430535D01*
X132238560Y-95360059D01*
X132193755Y-95306447D01*
X132185048Y-95237122D01*
X132215203Y-95174094D01*
X132259998Y-95142395D01*
X132273914Y-95136632D01*
X132437782Y-95027139D01*
X132577139Y-94887782D01*
X132686632Y-94723914D01*
X132687650Y-94721457D01*
X139634499Y-94721457D01*
X139662379Y-94861614D01*
X139662381Y-94861620D01*
X139717068Y-94993648D01*
X139719853Y-94998856D01*
X139734500Y-95057319D01*
X139734500Y-96361606D01*
X139749720Y-96438127D01*
X139749720Y-96438128D01*
X139758534Y-96482443D01*
X139758536Y-96482447D01*
X139758537Y-96482451D01*
X139777241Y-96527607D01*
X139805687Y-96596285D01*
X139805688Y-96596286D01*
X139831741Y-96635276D01*
X139874142Y-96698733D01*
X139961267Y-96785858D01*
X139961270Y-96785860D01*
X139968920Y-96793510D01*
X144171016Y-100995606D01*
X144171045Y-100995637D01*
X144261263Y-101085855D01*
X144261267Y-101085858D01*
X144363707Y-101154307D01*
X144363713Y-101154310D01*
X144363714Y-101154311D01*
X144477548Y-101201463D01*
X144507010Y-101207323D01*
X144531472Y-101212189D01*
X144531488Y-101212192D01*
X144531508Y-101212196D01*
X144598391Y-101225499D01*
X144598392Y-101225500D01*
X144598393Y-101225500D01*
X144598394Y-101225500D01*
X146782680Y-101225500D01*
X146841139Y-101240145D01*
X146846341Y-101242925D01*
X146846347Y-101242929D01*
X146978380Y-101297619D01*
X146978384Y-101297619D01*
X146978385Y-101297620D01*
X147118542Y-101325500D01*
X147118545Y-101325500D01*
X147261457Y-101325500D01*
X147355751Y-101306742D01*
X147401620Y-101297619D01*
X147533653Y-101242929D01*
X147652479Y-101163532D01*
X147753532Y-101062479D01*
X147832929Y-100943653D01*
X147887619Y-100811620D01*
X147915500Y-100671455D01*
X147915500Y-100528545D01*
X147915500Y-100528542D01*
X147887620Y-100388385D01*
X147887619Y-100388384D01*
X147887619Y-100388380D01*
X147832929Y-100256347D01*
X147832928Y-100256346D01*
X147832925Y-100256340D01*
X147753532Y-100137521D01*
X147753529Y-100137517D01*
X147652482Y-100036470D01*
X147652478Y-100036467D01*
X147533659Y-99957074D01*
X147533650Y-99957069D01*
X147401620Y-99902381D01*
X147401614Y-99902379D01*
X147261457Y-99874500D01*
X147261455Y-99874500D01*
X147118545Y-99874500D01*
X147118543Y-99874500D01*
X146978385Y-99902379D01*
X146978379Y-99902381D01*
X146846348Y-99957070D01*
X146841139Y-99959855D01*
X146782680Y-99974500D01*
X144970452Y-99974500D01*
X144903413Y-99954815D01*
X144882771Y-99938181D01*
X141021819Y-96077229D01*
X140988334Y-96015906D01*
X140985500Y-95989548D01*
X140985500Y-95057319D01*
X141000147Y-94998856D01*
X141002925Y-94993658D01*
X141002929Y-94993653D01*
X141057619Y-94861620D01*
X141066742Y-94815751D01*
X141085500Y-94721457D01*
X141085500Y-94578542D01*
X141058602Y-94443322D01*
X149335001Y-94443322D01*
X149345144Y-94542607D01*
X149398452Y-94703481D01*
X149398457Y-94703492D01*
X149487424Y-94847728D01*
X149487427Y-94847732D01*
X149607267Y-94967572D01*
X149607271Y-94967575D01*
X149751507Y-95056542D01*
X149751518Y-95056547D01*
X149912393Y-95109855D01*
X150011683Y-95119999D01*
X150560000Y-95119999D01*
X150608308Y-95119999D01*
X150608322Y-95119998D01*
X150707607Y-95109855D01*
X150868481Y-95056547D01*
X150868492Y-95056542D01*
X151012728Y-94967575D01*
X151012732Y-94967572D01*
X151132572Y-94847732D01*
X151132575Y-94847728D01*
X151214452Y-94714986D01*
X154450001Y-94714986D01*
X154460494Y-94817697D01*
X154515641Y-94984119D01*
X154515643Y-94984124D01*
X154607684Y-95133345D01*
X154731654Y-95257315D01*
X154880875Y-95349356D01*
X154880880Y-95349358D01*
X155047302Y-95404505D01*
X155047309Y-95404506D01*
X155150019Y-95414999D01*
X155424999Y-95414999D01*
X155925000Y-95414999D01*
X156199972Y-95414999D01*
X156199986Y-95414998D01*
X156302697Y-95404505D01*
X156469119Y-95349358D01*
X156469124Y-95349356D01*
X156524846Y-95314986D01*
X159190001Y-95314986D01*
X159200494Y-95417697D01*
X159255641Y-95584119D01*
X159255643Y-95584124D01*
X159347684Y-95733345D01*
X159471654Y-95857315D01*
X159620875Y-95949356D01*
X159620880Y-95949358D01*
X159787302Y-96004505D01*
X159787309Y-96004506D01*
X159890019Y-96014999D01*
X160789999Y-96014999D01*
X161290000Y-96014999D01*
X162189972Y-96014999D01*
X162189986Y-96014998D01*
X162292697Y-96004505D01*
X162459119Y-95949358D01*
X162459124Y-95949356D01*
X162608345Y-95857315D01*
X162732315Y-95733345D01*
X162824356Y-95584124D01*
X162824358Y-95584119D01*
X162879505Y-95417697D01*
X162879506Y-95417690D01*
X162889999Y-95314986D01*
X165005001Y-95314986D01*
X165015494Y-95417697D01*
X165070641Y-95584119D01*
X165070643Y-95584124D01*
X165162684Y-95733345D01*
X165286654Y-95857315D01*
X165435875Y-95949356D01*
X165435880Y-95949358D01*
X165602302Y-96004505D01*
X165602309Y-96004506D01*
X165705019Y-96014999D01*
X166154999Y-96014999D01*
X166655000Y-96014999D01*
X167104972Y-96014999D01*
X167104986Y-96014998D01*
X167207697Y-96004505D01*
X167374119Y-95949358D01*
X167374124Y-95949356D01*
X167523345Y-95857315D01*
X167647315Y-95733345D01*
X167739356Y-95584124D01*
X167739358Y-95584119D01*
X167794505Y-95417697D01*
X167794506Y-95417690D01*
X167804999Y-95314986D01*
X167805000Y-95314973D01*
X167805000Y-95294986D01*
X170370001Y-95294986D01*
X170380494Y-95397697D01*
X170435641Y-95564119D01*
X170435643Y-95564124D01*
X170527684Y-95713345D01*
X170651654Y-95837315D01*
X170800875Y-95929356D01*
X170800880Y-95929358D01*
X170967302Y-95984505D01*
X170967309Y-95984506D01*
X171070019Y-95994999D01*
X171519999Y-95994999D01*
X172020000Y-95994999D01*
X172469972Y-95994999D01*
X172469986Y-95994998D01*
X172572697Y-95984505D01*
X172739119Y-95929358D01*
X172739124Y-95929356D01*
X172888345Y-95837315D01*
X173012315Y-95713345D01*
X173104356Y-95564124D01*
X173104358Y-95564119D01*
X173159505Y-95397697D01*
X173159506Y-95397690D01*
X173169999Y-95294986D01*
X173170000Y-95294973D01*
X173170000Y-95170000D01*
X172020000Y-95170000D01*
X172020000Y-95994999D01*
X171519999Y-95994999D01*
X171520000Y-95994998D01*
X171520000Y-95170000D01*
X170370001Y-95170000D01*
X170370001Y-95294986D01*
X167805000Y-95294986D01*
X167805000Y-95190000D01*
X166655000Y-95190000D01*
X166655000Y-96014999D01*
X166154999Y-96014999D01*
X166155000Y-96014998D01*
X166155000Y-95190000D01*
X165005001Y-95190000D01*
X165005001Y-95314986D01*
X162889999Y-95314986D01*
X162890000Y-95314973D01*
X162890000Y-95190000D01*
X161290000Y-95190000D01*
X161290000Y-96014999D01*
X160789999Y-96014999D01*
X160790000Y-96014998D01*
X160790000Y-95190000D01*
X159190001Y-95190000D01*
X159190001Y-95314986D01*
X156524846Y-95314986D01*
X156618345Y-95257315D01*
X156742317Y-95133343D01*
X156779203Y-95073542D01*
X156779203Y-95073541D01*
X156834353Y-94984130D01*
X156834358Y-94984119D01*
X156889505Y-94817697D01*
X156889506Y-94817690D01*
X156899999Y-94714986D01*
X156900000Y-94714973D01*
X156900000Y-94665000D01*
X155925000Y-94665000D01*
X155925000Y-95414999D01*
X155424999Y-95414999D01*
X155425000Y-95414998D01*
X155425000Y-94665000D01*
X154450001Y-94665000D01*
X154450001Y-94714986D01*
X151214452Y-94714986D01*
X151221542Y-94703492D01*
X151221547Y-94703481D01*
X151264243Y-94574634D01*
X151264243Y-94574633D01*
X151267431Y-94565013D01*
X159190000Y-94565013D01*
X159190000Y-94690000D01*
X160790000Y-94690000D01*
X161290000Y-94690000D01*
X162889999Y-94690000D01*
X162889999Y-94565029D01*
X162889998Y-94565013D01*
X165005000Y-94565013D01*
X165005000Y-94690000D01*
X166155000Y-94690000D01*
X166655000Y-94690000D01*
X167804999Y-94690000D01*
X167804999Y-94565028D01*
X167804997Y-94565008D01*
X167803921Y-94554464D01*
X167802955Y-94545013D01*
X170370000Y-94545013D01*
X170370000Y-94670000D01*
X171520000Y-94670000D01*
X172020000Y-94670000D01*
X173169999Y-94670000D01*
X173169999Y-94545028D01*
X173169998Y-94545013D01*
X173159505Y-94442302D01*
X173104358Y-94275880D01*
X173104356Y-94275875D01*
X173012315Y-94126654D01*
X172888345Y-94002684D01*
X172739124Y-93910643D01*
X172739119Y-93910641D01*
X172572697Y-93855494D01*
X172572690Y-93855493D01*
X172469986Y-93845000D01*
X172020000Y-93845000D01*
X172020000Y-94670000D01*
X171520000Y-94670000D01*
X171520000Y-93845000D01*
X171070028Y-93845000D01*
X171070012Y-93845001D01*
X170967302Y-93855494D01*
X170800880Y-93910641D01*
X170800875Y-93910643D01*
X170651654Y-94002684D01*
X170527684Y-94126654D01*
X170435643Y-94275875D01*
X170435641Y-94275880D01*
X170380494Y-94442302D01*
X170380493Y-94442309D01*
X170370000Y-94545013D01*
X167802955Y-94545013D01*
X167794505Y-94462302D01*
X167739358Y-94295880D01*
X167739356Y-94295875D01*
X167647315Y-94146654D01*
X167523345Y-94022684D01*
X167374124Y-93930643D01*
X167374119Y-93930641D01*
X167207697Y-93875494D01*
X167207690Y-93875493D01*
X167104986Y-93865000D01*
X166655000Y-93865000D01*
X166655000Y-94690000D01*
X166155000Y-94690000D01*
X166155000Y-93865000D01*
X165705028Y-93865000D01*
X165705012Y-93865001D01*
X165602302Y-93875494D01*
X165435880Y-93930641D01*
X165435875Y-93930643D01*
X165286654Y-94022684D01*
X165162684Y-94146654D01*
X165070643Y-94295875D01*
X165070641Y-94295880D01*
X165015494Y-94462302D01*
X165015493Y-94462309D01*
X165005000Y-94565013D01*
X162889998Y-94565013D01*
X162889998Y-94565012D01*
X162879505Y-94462302D01*
X162824358Y-94295880D01*
X162824356Y-94295875D01*
X162732315Y-94146654D01*
X162608345Y-94022684D01*
X162459124Y-93930643D01*
X162459119Y-93930641D01*
X162292697Y-93875494D01*
X162292690Y-93875493D01*
X162189986Y-93865000D01*
X161290000Y-93865000D01*
X161290000Y-94690000D01*
X160790000Y-94690000D01*
X160790000Y-93865000D01*
X159890028Y-93865000D01*
X159890012Y-93865001D01*
X159787302Y-93875494D01*
X159620880Y-93930641D01*
X159620875Y-93930643D01*
X159471654Y-94022684D01*
X159347684Y-94146654D01*
X159255643Y-94295875D01*
X159255641Y-94295880D01*
X159200494Y-94462302D01*
X159200493Y-94462309D01*
X159190000Y-94565013D01*
X151267431Y-94565013D01*
X151274856Y-94542605D01*
X151284999Y-94443322D01*
X151285000Y-94443309D01*
X151285000Y-94420000D01*
X150560000Y-94420000D01*
X150560000Y-95119999D01*
X150011683Y-95119999D01*
X150059999Y-95119998D01*
X150060000Y-95119998D01*
X150060000Y-94420000D01*
X149335001Y-94420000D01*
X149335001Y-94443322D01*
X141058602Y-94443322D01*
X141057620Y-94438385D01*
X141057618Y-94438379D01*
X141020407Y-94348543D01*
X141002932Y-94306353D01*
X141002925Y-94306340D01*
X140923532Y-94187521D01*
X140923529Y-94187517D01*
X140822482Y-94086470D01*
X140822478Y-94086467D01*
X140703659Y-94007074D01*
X140703650Y-94007069D01*
X140571620Y-93952381D01*
X140571614Y-93952379D01*
X140431457Y-93924500D01*
X140431455Y-93924500D01*
X140288545Y-93924500D01*
X140288543Y-93924500D01*
X140148385Y-93952379D01*
X140148379Y-93952381D01*
X140016349Y-94007069D01*
X140016340Y-94007074D01*
X139897521Y-94086467D01*
X139897517Y-94086470D01*
X139796470Y-94187517D01*
X139796467Y-94187521D01*
X139717074Y-94306340D01*
X139717069Y-94306349D01*
X139662381Y-94438379D01*
X139662379Y-94438385D01*
X139634500Y-94578542D01*
X139634500Y-94578545D01*
X139634500Y-94721455D01*
X139634500Y-94721457D01*
X139634499Y-94721457D01*
X132687650Y-94721457D01*
X132690336Y-94714973D01*
X132746845Y-94578545D01*
X132762051Y-94541835D01*
X132800500Y-94348541D01*
X132800500Y-94151459D01*
X132800500Y-94151456D01*
X132762052Y-93958170D01*
X132762051Y-93958169D01*
X132762051Y-93958165D01*
X132727808Y-93875494D01*
X132686635Y-93776092D01*
X132686628Y-93776079D01*
X132577139Y-93612218D01*
X132577136Y-93612214D01*
X132437785Y-93472863D01*
X132437781Y-93472860D01*
X132273920Y-93363371D01*
X132273907Y-93363364D01*
X132091839Y-93287950D01*
X132091829Y-93287947D01*
X131898543Y-93249500D01*
X131898541Y-93249500D01*
X131357230Y-93249500D01*
X131290191Y-93229815D01*
X131269549Y-93213181D01*
X131238657Y-93182289D01*
X131238656Y-93182288D01*
X131089334Y-93090186D01*
X130922797Y-93035001D01*
X130922795Y-93035000D01*
X130820010Y-93024500D01*
X130219998Y-93024500D01*
X130219980Y-93024501D01*
X130117203Y-93035000D01*
X130117200Y-93035001D01*
X129950668Y-93090185D01*
X129950663Y-93090187D01*
X129801342Y-93182289D01*
X129677288Y-93306343D01*
X129677283Y-93306349D01*
X129675241Y-93309661D01*
X129673247Y-93311453D01*
X129672807Y-93312011D01*
X129672711Y-93311935D01*
X129623291Y-93356383D01*
X129554328Y-93367602D01*
X129490247Y-93339755D01*
X129464168Y-93309656D01*
X129462319Y-93306659D01*
X129462316Y-93306655D01*
X129338345Y-93182684D01*
X129189124Y-93090643D01*
X129189119Y-93090641D01*
X129022697Y-93035494D01*
X129022690Y-93035493D01*
X128919986Y-93025000D01*
X128870000Y-93025000D01*
X128870000Y-94126000D01*
X128850315Y-94193039D01*
X128797511Y-94238794D01*
X128746000Y-94250000D01*
X128620000Y-94250000D01*
X128620000Y-94376000D01*
X128600315Y-94443039D01*
X128547511Y-94488794D01*
X128496000Y-94500000D01*
X127620001Y-94500000D01*
X126224476Y-94500000D01*
X126224476Y-93725013D01*
X127620000Y-93725013D01*
X127620000Y-94000000D01*
X128370000Y-94000000D01*
X128370000Y-93025000D01*
X128369999Y-93024999D01*
X128320029Y-93025000D01*
X128320011Y-93025001D01*
X128217302Y-93035494D01*
X128050880Y-93090641D01*
X128050875Y-93090643D01*
X127901654Y-93182684D01*
X127777684Y-93306654D01*
X127685643Y-93455875D01*
X127685641Y-93455880D01*
X127630494Y-93622302D01*
X127630493Y-93622309D01*
X127620000Y-93725013D01*
X126224476Y-93725013D01*
X126224476Y-90619986D01*
X129430001Y-90619986D01*
X129440494Y-90722697D01*
X129495641Y-90889119D01*
X129495643Y-90889124D01*
X129587684Y-91038345D01*
X129711654Y-91162315D01*
X129860875Y-91254356D01*
X129860880Y-91254358D01*
X130027302Y-91309505D01*
X130027309Y-91309506D01*
X130130019Y-91319999D01*
X130254999Y-91319999D01*
X130755000Y-91319999D01*
X130879972Y-91319999D01*
X130879986Y-91319998D01*
X130982697Y-91309505D01*
X131149119Y-91254358D01*
X131149124Y-91254356D01*
X131298345Y-91162315D01*
X131422315Y-91038345D01*
X131514356Y-90889124D01*
X131514358Y-90889119D01*
X131569505Y-90722697D01*
X131569506Y-90722690D01*
X131579999Y-90619986D01*
X131580000Y-90619973D01*
X131580000Y-90170000D01*
X130755000Y-90170000D01*
X130755000Y-91319999D01*
X130254999Y-91319999D01*
X130255000Y-91319998D01*
X130255000Y-90170000D01*
X129430001Y-90170000D01*
X129430001Y-90619986D01*
X126224476Y-90619986D01*
X126224476Y-87671617D01*
X129080000Y-87671617D01*
X129080000Y-87868382D01*
X129110778Y-88062705D01*
X129171581Y-88249835D01*
X129260905Y-88425145D01*
X129286319Y-88460125D01*
X129286320Y-88460125D01*
X129847037Y-87899408D01*
X129864075Y-87962993D01*
X129929901Y-88077007D01*
X130022993Y-88170099D01*
X130137007Y-88235925D01*
X130200590Y-88252962D01*
X129575428Y-88878124D01*
X129522787Y-88906868D01*
X129495645Y-88950871D01*
X129495641Y-88950880D01*
X129440494Y-89117302D01*
X129440493Y-89117309D01*
X129430000Y-89220013D01*
X129430000Y-89670000D01*
X131579999Y-89670000D01*
X131579999Y-89220024D01*
X131579998Y-89220016D01*
X131579995Y-89219983D01*
X132379500Y-89219983D01*
X132379500Y-90620001D01*
X132379501Y-90620018D01*
X132390000Y-90722796D01*
X132390001Y-90722799D01*
X132445185Y-90889331D01*
X132445187Y-90889336D01*
X132466725Y-90924255D01*
X132537288Y-91038656D01*
X132661344Y-91162712D01*
X132810666Y-91254814D01*
X132977203Y-91309999D01*
X133079991Y-91320500D01*
X133830008Y-91320499D01*
X133830016Y-91320498D01*
X133830019Y-91320498D01*
X133886302Y-91314748D01*
X133932797Y-91309999D01*
X134099334Y-91254814D01*
X134248656Y-91162712D01*
X134372712Y-91038656D01*
X134464814Y-90889334D01*
X134519999Y-90722797D01*
X134530500Y-90620009D01*
X134530499Y-89219992D01*
X134519999Y-89117203D01*
X134467637Y-88959187D01*
X134465236Y-88889362D01*
X134500967Y-88829320D01*
X134512450Y-88819874D01*
X134644646Y-88723828D01*
X134783828Y-88584646D01*
X134899524Y-88425405D01*
X134988884Y-88250025D01*
X135049709Y-88062826D01*
X135050741Y-88056308D01*
X135080500Y-87868422D01*
X135080500Y-87671577D01*
X135049709Y-87477173D01*
X134999549Y-87322799D01*
X134988884Y-87289975D01*
X134988882Y-87289972D01*
X134988882Y-87289970D01*
X134918911Y-87152645D01*
X134899524Y-87114595D01*
X134783828Y-86955354D01*
X134644646Y-86816172D01*
X134485405Y-86700476D01*
X134310029Y-86611117D01*
X134122826Y-86550290D01*
X133928422Y-86519500D01*
X133928417Y-86519500D01*
X133731583Y-86519500D01*
X133731578Y-86519500D01*
X133537173Y-86550290D01*
X133349970Y-86611117D01*
X133174594Y-86700476D01*
X133091704Y-86760700D01*
X133015354Y-86816172D01*
X133015352Y-86816174D01*
X133015351Y-86816174D01*
X132876174Y-86955351D01*
X132876174Y-86955352D01*
X132876172Y-86955354D01*
X132873138Y-86959530D01*
X132760476Y-87114594D01*
X132671117Y-87289970D01*
X132610290Y-87477173D01*
X132579500Y-87671577D01*
X132579500Y-87868424D01*
X132581520Y-87881181D01*
X132580664Y-87924761D01*
X132554500Y-88056307D01*
X132554500Y-88738272D01*
X132536039Y-88803368D01*
X132445189Y-88950659D01*
X132445185Y-88950668D01*
X132445115Y-88950880D01*
X132390001Y-89117203D01*
X132390001Y-89117204D01*
X132390000Y-89117204D01*
X132379500Y-89219983D01*
X131579995Y-89219983D01*
X131569505Y-89117302D01*
X131514358Y-88950880D01*
X131514356Y-88950875D01*
X131422315Y-88801654D01*
X131325314Y-88704653D01*
X131291829Y-88643330D01*
X131296813Y-88573638D01*
X131312678Y-88544086D01*
X131399093Y-88425147D01*
X131488418Y-88249835D01*
X131549221Y-88062705D01*
X131580000Y-87868382D01*
X131580000Y-87671617D01*
X131549221Y-87477294D01*
X131488418Y-87290164D01*
X131399096Y-87114858D01*
X131373678Y-87079873D01*
X131373677Y-87079873D01*
X130812962Y-87640590D01*
X130795925Y-87577007D01*
X130730099Y-87462993D01*
X130637007Y-87369901D01*
X130522993Y-87304075D01*
X130459409Y-87287037D01*
X131020125Y-86726320D01*
X131020125Y-86726319D01*
X130985145Y-86700905D01*
X130809835Y-86611581D01*
X130622705Y-86550778D01*
X130428382Y-86520000D01*
X130231618Y-86520000D01*
X130037294Y-86550778D01*
X129850161Y-86611582D01*
X129674863Y-86700899D01*
X129674859Y-86700902D01*
X129639873Y-86726320D01*
X129639872Y-86726320D01*
X130200590Y-87287037D01*
X130137007Y-87304075D01*
X130022993Y-87369901D01*
X129929901Y-87462993D01*
X129864075Y-87577007D01*
X129847037Y-87640590D01*
X129286320Y-87079872D01*
X129286320Y-87079873D01*
X129260902Y-87114859D01*
X129260899Y-87114863D01*
X129171582Y-87290161D01*
X129110778Y-87477294D01*
X129080000Y-87671617D01*
X126224476Y-87671617D01*
X126224476Y-83797616D01*
X126226102Y-83789440D01*
X126225186Y-83784364D01*
X126233914Y-83750166D01*
X126244431Y-83724775D01*
X126250452Y-83712269D01*
X126406467Y-83429983D01*
X126413854Y-83418228D01*
X126600482Y-83155201D01*
X126609128Y-83144358D01*
X126824049Y-82903861D01*
X126833861Y-82894049D01*
X127074358Y-82679128D01*
X127085201Y-82670482D01*
X127348228Y-82483854D01*
X127359983Y-82476467D01*
X127570809Y-82359948D01*
X127630790Y-82344476D01*
X137111571Y-82344476D01*
X137178610Y-82364161D01*
G37*
%TD.AperFunction*%
%TD*%
M02*
