%TF.GenerationSoftware,KiCad,Pcbnew,9.0.5*%
%TF.CreationDate,2025-10-15T03:39:03+09:00*%
%TF.ProjectId,fpga_pre_test,66706761-5f70-4726-955f-746573742e6b,rev?*%
%TF.SameCoordinates,Original*%
%TF.FileFunction,Paste,Top*%
%TF.FilePolarity,Positive*%
%FSLAX46Y46*%
G04 Gerber Fmt 4.6, Leading zero omitted, Abs format (unit mm)*
G04 Created by KiCad (PCBNEW 9.0.5) date 2025-10-15 03:39:03*
%MOMM*%
%LPD*%
G01*
G04 APERTURE LIST*
G04 Aperture macros list*
%AMRoundRect*
0 Rectangle with rounded corners*
0 $1 Rounding radius*
0 $2 $3 $4 $5 $6 $7 $8 $9 X,Y pos of 4 corners*
0 Add a 4 corners polygon primitive as box body*
4,1,4,$2,$3,$4,$5,$6,$7,$8,$9,$2,$3,0*
0 Add four circle primitives for the rounded corners*
1,1,$1+$1,$2,$3*
1,1,$1+$1,$4,$5*
1,1,$1+$1,$6,$7*
1,1,$1+$1,$8,$9*
0 Add four rect primitives between the rounded corners*
20,1,$1+$1,$2,$3,$4,$5,0*
20,1,$1+$1,$4,$5,$6,$7,0*
20,1,$1+$1,$6,$7,$8,$9,0*
20,1,$1+$1,$8,$9,$2,$3,0*%
G04 Aperture macros list end*
%ADD10R,0.250000X0.600000*%
%ADD11R,2.400000X0.250000*%
%ADD12RoundRect,0.250000X0.625000X-0.312500X0.625000X0.312500X-0.625000X0.312500X-0.625000X-0.312500X0*%
%ADD13R,1.130000X2.440000*%
%ADD14R,2.500000X1.200000*%
%ADD15R,0.900000X0.800000*%
%ADD16R,1.200000X0.600000*%
%ADD17R,2.200000X1.200000*%
%ADD18RoundRect,0.200000X-0.275000X0.200000X-0.275000X-0.200000X0.275000X-0.200000X0.275000X0.200000X0*%
%ADD19R,0.650000X0.850000*%
G04 APERTURE END LIST*
D10*
%TO.C,IC4*%
X139870000Y-90730000D03*
X140370000Y-90730000D03*
X140870000Y-90730000D03*
X141370000Y-90730000D03*
X141370000Y-93530000D03*
X140870000Y-93530000D03*
X140370000Y-93530000D03*
X139870000Y-93530000D03*
D11*
X140620000Y-92630000D03*
X140620000Y-92130000D03*
X140620000Y-91630000D03*
%TD*%
D12*
%TO.C,R20*%
X171770000Y-94907500D03*
X171770000Y-91982500D03*
%TD*%
%TO.C,R19*%
X166405000Y-92002500D03*
X166405000Y-94927500D03*
%TD*%
%TO.C,R18*%
X161040000Y-92002500D03*
X161040000Y-94927500D03*
%TD*%
%TO.C,R17*%
X155675000Y-92002500D03*
X155675000Y-94927500D03*
%TD*%
%TO.C,R16*%
X150310000Y-91932500D03*
X150310000Y-94857500D03*
%TD*%
D13*
%TO.C,S2*%
X148870000Y-109200000D03*
X151410000Y-109200000D03*
X153950000Y-109200000D03*
X156490000Y-109200000D03*
X156490000Y-100600000D03*
X153950000Y-100600000D03*
X151410000Y-100600000D03*
X148870000Y-100600000D03*
%TD*%
D14*
%TO.C,S1*%
X134880000Y-106080000D03*
X134880000Y-103580000D03*
X134880000Y-101080000D03*
X129380000Y-106080000D03*
X129380000Y-103580000D03*
X129380000Y-101080000D03*
%TD*%
D15*
%TO.C,IC1*%
X128580000Y-95200000D03*
X130580000Y-96150000D03*
X130580000Y-94250000D03*
%TD*%
D16*
%TO.C,IC2*%
X140481493Y-101682499D03*
X140481493Y-102632499D03*
X140481493Y-103582499D03*
X137981493Y-103582499D03*
X137981493Y-102632499D03*
X137981493Y-101682499D03*
%TD*%
D17*
%TO.C,L2*%
X144920000Y-91130000D03*
X144920000Y-93130000D03*
%TD*%
D10*
%TO.C,IC3*%
X139865000Y-84570000D03*
X140365000Y-84570000D03*
X140865000Y-84570000D03*
X141365000Y-84570000D03*
X141365000Y-87370000D03*
X140865000Y-87370000D03*
X140365000Y-87370000D03*
X139865000Y-87370000D03*
D11*
X140615000Y-86470000D03*
X140615000Y-85970000D03*
X140615000Y-85470000D03*
%TD*%
D17*
%TO.C,L1*%
X144915000Y-86970000D03*
X144915000Y-84970000D03*
%TD*%
D18*
%TO.C,R21*%
X152510000Y-86770000D03*
X152510000Y-85120000D03*
%TD*%
D19*
%TO.C,Y1*%
X148710000Y-86720000D03*
X150360000Y-86720000D03*
X150360000Y-85170000D03*
X148710000Y-85170000D03*
%TD*%
M02*
