%TF.GenerationSoftware,KiCad,Pcbnew,9.0.5*%
%TF.CreationDate,2025-10-15T03:39:03+09:00*%
%TF.ProjectId,fpga_pre_test,66706761-5f70-4726-955f-746573742e6b,rev?*%
%TF.SameCoordinates,Original*%
%TF.FileFunction,Legend,Bot*%
%TF.FilePolarity,Positive*%
%FSLAX46Y46*%
G04 Gerber Fmt 4.6, Leading zero omitted, Abs format (unit mm)*
G04 Created by KiCad (PCBNEW 9.0.5) date 2025-10-15 03:39:03*
%MOMM*%
%LPD*%
G01*
G04 APERTURE LIST*
%ADD10C,0.120000*%
G04 APERTURE END LIST*
D10*
%TO.C,C7*%
X149800000Y-93254420D02*
X149800000Y-93535580D01*
X150820000Y-93254420D02*
X150820000Y-93535580D01*
%TO.C,C10*%
X165495000Y-92753748D02*
X165495000Y-94176252D01*
X167315000Y-92753748D02*
X167315000Y-94176252D01*
%TO.C,C9*%
X162400000Y-92753748D02*
X162400000Y-94176252D01*
X159680000Y-92753748D02*
X159680000Y-94176252D01*
%TO.C,C8*%
X156410000Y-93203748D02*
X156410000Y-93726252D01*
X154940000Y-93203748D02*
X154940000Y-93726252D01*
%TO.C,C11*%
X172680000Y-92733748D02*
X172680000Y-94156252D01*
X170860000Y-92733748D02*
X170860000Y-94156252D01*
%TO.C,R14*%
X148347500Y-109072258D02*
X148347500Y-108597742D01*
X149392500Y-109072258D02*
X149392500Y-108597742D01*
%TO.C,C2*%
X129831252Y-93515000D02*
X129308748Y-93515000D01*
X129831252Y-94985000D02*
X129308748Y-94985000D01*
%TO.C,C3*%
X129885580Y-95620000D02*
X129604420Y-95620000D01*
X129885580Y-96640000D02*
X129604420Y-96640000D01*
%TO.C,R4*%
X141343751Y-103144999D02*
X140869235Y-103144999D01*
X141343751Y-102099999D02*
X140869235Y-102099999D01*
%TO.C,R1*%
X135087500Y-101947258D02*
X135087500Y-101472742D01*
X136132500Y-101947258D02*
X136132500Y-101472742D01*
%TO.C,R2*%
X134675189Y-101472742D02*
X134675189Y-101947258D01*
X133630189Y-101472742D02*
X133630189Y-101947258D01*
%TO.C,R3*%
X141343751Y-101684999D02*
X140869235Y-101684999D01*
X141343751Y-100639999D02*
X140869235Y-100639999D01*
%TO.C,R5*%
X141343751Y-104604999D02*
X140869235Y-104604999D01*
X141343751Y-103559999D02*
X140869235Y-103559999D01*
%TO.C,C6*%
X140917836Y-90380000D02*
X140702164Y-90380000D01*
X140917836Y-91100000D02*
X140702164Y-91100000D01*
%TO.C,R15*%
X149392500Y-106112258D02*
X149392500Y-105637742D01*
X148347500Y-106112258D02*
X148347500Y-105637742D01*
%TO.C,R13*%
X151932500Y-106102258D02*
X151932500Y-105627742D01*
X150887500Y-106102258D02*
X150887500Y-105627742D01*
%TO.C,R12*%
X151932500Y-109062258D02*
X151932500Y-108587742D01*
X150887500Y-109062258D02*
X150887500Y-108587742D01*
%TO.C,R11*%
X154472500Y-106102258D02*
X154472500Y-105627742D01*
X153427500Y-106102258D02*
X153427500Y-105627742D01*
%TO.C,R10*%
X154472500Y-109062258D02*
X154472500Y-108587742D01*
X153427500Y-109062258D02*
X153427500Y-108587742D01*
%TO.C,R9*%
X157017500Y-106102258D02*
X157017500Y-105627742D01*
X155972500Y-106102258D02*
X155972500Y-105627742D01*
%TO.C,R8*%
X157012500Y-109062258D02*
X157012500Y-108587742D01*
X155967500Y-109062258D02*
X155967500Y-108587742D01*
%TO.C,R7*%
X139667500Y-85812258D02*
X139667500Y-85337742D01*
X138622500Y-85812258D02*
X138622500Y-85337742D01*
%TO.C,C5*%
X145650000Y-86231252D02*
X145650000Y-85708748D01*
X144180000Y-86231252D02*
X144180000Y-85708748D01*
%TO.C,C4*%
X140902836Y-84200000D02*
X140687164Y-84200000D01*
X140902836Y-84920000D02*
X140687164Y-84920000D01*
%TO.C,C1*%
X132691252Y-89010000D02*
X131268748Y-89010000D01*
X132691252Y-90830000D02*
X131268748Y-90830000D01*
%TO.C,R6*%
X140137258Y-87267500D02*
X139662742Y-87267500D01*
X140137258Y-88312500D02*
X139662742Y-88312500D01*
%TD*%
M02*
