%TF.GenerationSoftware,KiCad,Pcbnew,9.0.5*%
%TF.CreationDate,2025-10-15T03:39:03+09:00*%
%TF.ProjectId,fpga_pre_test,66706761-5f70-4726-955f-746573742e6b,rev?*%
%TF.SameCoordinates,Original*%
%TF.FileFunction,Soldermask,Bot*%
%TF.FilePolarity,Negative*%
%FSLAX46Y46*%
G04 Gerber Fmt 4.6, Leading zero omitted, Abs format (unit mm)*
G04 Created by KiCad (PCBNEW 9.0.5) date 2025-10-15 03:39:03*
%MOMM*%
%LPD*%
G01*
G04 APERTURE LIST*
G04 Aperture macros list*
%AMRoundRect*
0 Rectangle with rounded corners*
0 $1 Rounding radius*
0 $2 $3 $4 $5 $6 $7 $8 $9 X,Y pos of 4 corners*
0 Add a 4 corners polygon primitive as box body*
4,1,4,$2,$3,$4,$5,$6,$7,$8,$9,$2,$3,0*
0 Add four circle primitives for the rounded corners*
1,1,$1+$1,$2,$3*
1,1,$1+$1,$4,$5*
1,1,$1+$1,$6,$7*
1,1,$1+$1,$8,$9*
0 Add four rect primitives between the rounded corners*
20,1,$1+$1,$2,$3,$4,$5,0*
20,1,$1+$1,$4,$5,$6,$7,0*
20,1,$1+$1,$6,$7,$8,$9,0*
20,1,$1+$1,$8,$9,$2,$3,0*%
G04 Aperture macros list end*
%ADD10RoundRect,0.225000X-0.250000X0.225000X-0.250000X-0.225000X0.250000X-0.225000X0.250000X0.225000X0*%
%ADD11RoundRect,0.250000X-0.650000X0.325000X-0.650000X-0.325000X0.650000X-0.325000X0.650000X0.325000X0*%
%ADD12RoundRect,0.250000X-1.100000X0.325000X-1.100000X-0.325000X1.100000X-0.325000X1.100000X0.325000X0*%
%ADD13RoundRect,0.250000X-0.475000X0.250000X-0.475000X-0.250000X0.475000X-0.250000X0.475000X0.250000X0*%
%ADD14RoundRect,0.200000X0.275000X-0.200000X0.275000X0.200000X-0.275000X0.200000X-0.275000X-0.200000X0*%
%ADD15RoundRect,0.250000X0.250000X0.475000X-0.250000X0.475000X-0.250000X-0.475000X0.250000X-0.475000X0*%
%ADD16RoundRect,0.225000X0.225000X0.250000X-0.225000X0.250000X-0.225000X-0.250000X0.225000X-0.250000X0*%
%ADD17RoundRect,0.200000X0.200000X0.275000X-0.200000X0.275000X-0.200000X-0.275000X0.200000X-0.275000X0*%
%ADD18RoundRect,0.200000X-0.275000X0.200000X-0.275000X-0.200000X0.275000X-0.200000X0.275000X0.200000X0*%
%ADD19RoundRect,0.140000X0.140000X0.170000X-0.140000X0.170000X-0.140000X-0.170000X0.140000X-0.170000X0*%
%ADD20C,1.500000*%
%ADD21RoundRect,0.250000X0.475000X-0.250000X0.475000X0.250000X-0.475000X0.250000X-0.475000X-0.250000X0*%
%ADD22RoundRect,0.250000X0.325000X0.650000X-0.325000X0.650000X-0.325000X-0.650000X0.325000X-0.650000X0*%
G04 APERTURE END LIST*
D10*
%TO.C,C7*%
X150310000Y-92620000D03*
X150310000Y-94170000D03*
%TD*%
D11*
%TO.C,C10*%
X166405000Y-91990000D03*
X166405000Y-94940000D03*
%TD*%
D12*
%TO.C,C9*%
X161040000Y-94940000D03*
X161040000Y-91990000D03*
%TD*%
D13*
%TO.C,C8*%
X155675000Y-94415000D03*
X155675000Y-92515000D03*
%TD*%
D11*
%TO.C,C11*%
X171770000Y-94920000D03*
X171770000Y-91970000D03*
%TD*%
D14*
%TO.C,R14*%
X148870000Y-108010000D03*
X148870000Y-109660000D03*
%TD*%
D15*
%TO.C,C2*%
X130520000Y-94250000D03*
X128620000Y-94250000D03*
%TD*%
D16*
%TO.C,C3*%
X130520000Y-96130000D03*
X128970000Y-96130000D03*
%TD*%
D17*
%TO.C,R4*%
X140281493Y-102622499D03*
X141931493Y-102622499D03*
%TD*%
D14*
%TO.C,R1*%
X135610000Y-100885000D03*
X135610000Y-102535000D03*
%TD*%
D18*
%TO.C,R2*%
X134152689Y-102535000D03*
X134152689Y-100885000D03*
%TD*%
D17*
%TO.C,R3*%
X140281493Y-101162499D03*
X141931493Y-101162499D03*
%TD*%
%TO.C,R5*%
X140281493Y-104082499D03*
X141931493Y-104082499D03*
%TD*%
D19*
%TO.C,C6*%
X141290000Y-90740000D03*
X140330000Y-90740000D03*
%TD*%
D14*
%TO.C,R15*%
X148870000Y-106700000D03*
X148870000Y-105050000D03*
%TD*%
%TO.C,R13*%
X151410000Y-106690000D03*
X151410000Y-105040000D03*
%TD*%
%TO.C,R12*%
X151410000Y-109650000D03*
X151410000Y-108000000D03*
%TD*%
%TO.C,R11*%
X153950000Y-106690000D03*
X153950000Y-105040000D03*
%TD*%
%TO.C,R10*%
X153950000Y-109650000D03*
X153950000Y-108000000D03*
%TD*%
%TO.C,R9*%
X156495000Y-106690000D03*
X156495000Y-105040000D03*
%TD*%
%TO.C,R8*%
X156490000Y-109650000D03*
X156490000Y-108000000D03*
%TD*%
%TO.C,R7*%
X139145000Y-86400000D03*
X139145000Y-84750000D03*
%TD*%
D20*
%TO.C,J2*%
X169260000Y-110020000D03*
X165760000Y-110020000D03*
%TD*%
%TO.C,J1*%
X130330000Y-87770000D03*
X133830000Y-87770000D03*
%TD*%
D21*
%TO.C,C5*%
X144915000Y-86920000D03*
X144915000Y-85020000D03*
%TD*%
D19*
%TO.C,C4*%
X141275000Y-84560000D03*
X140315000Y-84560000D03*
%TD*%
D22*
%TO.C,C1*%
X133455000Y-89920000D03*
X130505000Y-89920000D03*
%TD*%
D17*
%TO.C,R6*%
X140725000Y-87790000D03*
X139075000Y-87790000D03*
%TD*%
M02*
